<svg width="32" height="64" viewBox="0 0 32 64" fill="none" xmlns="http://www.w3.org/2000/svg">
<path opacity="0.3" d="M5.14136 61.4388C10.8852 64.7641 20.1988 64.7641 25.9413 61.4388C31.6837 58.1136 31.6851 52.7146 25.9413 49.3866C20.1974 46.0586 10.8852 46.0586 5.1386 49.3866C-0.607968 52.7146 -0.60384 58.1095 5.14136 61.4388Z" fill="black"/>
<path d="M27.6546 22.567C27.6546 22.567 29.1397 22.32 29.5096 22.3986C29.8795 22.4773 30.3347 23.0112 30.5025 23.2099C30.6703 23.4086 30.5025 23.7494 30.5025 23.7494C30.5025 23.7494 31.6686 24.9167 31.3757 25.3941C31.0828 25.8715 29.5385 26.3185 28.5292 25.946C27.5199 25.5735 26.274 23.9012 26.274 23.9012L26.0306 23.1037L26.9629 22.1641L27.6546 22.567Z" fill="#0D0D0D"/>
<path d="M22.5516 15.4688C22.5516 15.4688 23.5306 16.9962 23.7176 17.6226C25.4915 19.0465 26.0925 21.2569 27.6546 22.5663C27.6546 22.5663 26.3565 23.2051 26.2795 23.9019C24.111 22.0999 22.8032 21.8322 21.6399 19.8674L19.8522 17.2845L22.5516 15.4688Z" fill="#F0C6B4"/>
<path d="M16.5163 8.0336C16.5163 8.0336 19.1111 7.87215 20.2854 10.2233C21.4598 12.5744 22.3275 14.5888 22.8473 15.3284C22.4884 17.5663 19.7451 17.8258 19.7451 17.8258L16.2083 11.294L16.5163 8.0336Z" fill="#91773D"/>
<path d="M11.1973 7.1473C11.3348 8.28699 10.705 9.7233 10.705 9.7233L12.1173 11.2714L14.5842 12.2179L16.3223 11.942L16.9934 9.91508L15.4423 7.92409L13.5171 6.28906C13.5171 6.28906 11.1684 6.68508 11.1973 7.1473Z" fill="#C7A495"/>
<path d="M15.5454 9.61588C15.5454 9.61588 15.9346 10.946 15.3804 11.3778C14.2803 12.1132 10.8426 9.60346 10.6445 9.54275C10.4514 9.80151 10.2195 10.0287 9.95698 10.2161V10.8439L8.96003 11.2247L7.7403 12.6265L11.6442 23.8398L12.8145 26.9953L16.6538 27.4479L19.7505 24.4124L20.8423 18.4463C20.8423 18.4463 21.3333 15.4936 20.7048 12.8073C20.1754 10.5651 16.8229 8.66797 16.8229 8.66797L15.5454 9.61588Z" fill="#CBAB5C"/>
<path d="M8.95453 11.2289C13.0798 12.4017 14.5925 17.8214 14.5925 17.8214L15.8438 17.2047C15.8438 17.2047 14.1937 11.2386 9.94739 10.2148C9.53904 10.4667 9.19818 10.8148 8.95453 11.2289Z" fill="#1D374E"/>
<path d="M23.9239 55.4363C23.9239 55.4363 27.1472 57.3321 27.6078 57.7336C28.0685 58.1351 27.9035 58.5614 27.8223 58.7905C27.6587 59.3644 25.3293 59.0664 24.6335 58.7905C24.0408 58.5559 23.4303 58.2151 22.949 58.0509C22.4677 57.8867 20.5494 57.7639 20.1328 57.499C19.7161 57.2341 20.1328 55.25 20.1328 55.25L23.9239 55.4363Z" fill="#0D0D0D"/>
<path d="M15.5454 32.0399C15.5454 32.0399 19.4479 41.759 19.4259 43.354C18.4881 46.3025 19.0258 54.0112 19.0134 54.6252C19.0065 56.5569 24.2622 56.4741 23.9569 55.1192C23.2625 52.0437 24.6101 45.8113 23.9569 43.0283C23.7795 41.7217 23.9569 35.3169 21.138 26.6009C20.6484 26.5057 17.707 28.5133 17.707 28.5133L15.5454 32.0399Z" fill="#0F2034"/>
<path d="M14.433 8.7087C18.2833 10.2789 19.58 15.2874 19.58 15.2874L20.6938 14.4113C20.6938 14.4113 19.7753 9.96015 15.5454 8.03125C14.9528 8.42586 14.6062 8.41343 14.433 8.7087Z" fill="#1D374E"/>
<path d="M14.4797 28.0181C14.5892 24.5053 14.4268 20.9892 13.9943 17.5016C13.9943 17.5016 18.6614 16.1218 20.9262 13.75C21.2711 17.4422 21.2411 21.1599 20.8368 24.846L20.2675 26.3458L17.124 28.3948C17.124 28.3948 14.3725 28.4513 14.4797 28.0181Z" fill="#1D374E"/>
<path d="M7.6193 52.685C7.86407 53.5046 10.2086 55.6943 10.045 56.4531C9.88137 57.212 7.55881 57.3776 6.67875 56.7843C5.79868 56.191 3.12547 52.8892 3.10347 52.1511C3.08147 51.4129 4.02341 50 4.02341 50C4.02341 50 7.6413 52.3773 7.6193 52.685Z" fill="#0D0D0D"/>
<path d="M20.8368 24.8477C20.8368 24.8477 18.2626 27.4941 15.6884 27.4941C13.1142 27.4941 11.2152 25.7004 11.2152 25.7004C11.2152 25.7004 9.51832 27.5962 9.3148 29.7969C9.11128 31.9976 8.21474 41.1675 7.96722 41.7525C7.7197 42.3375 6.52743 43.0757 5.91551 44.0898C5.30358 45.1039 4.22965 48.6803 3.98351 49.6282C2.88342 52.4194 6.98677 52.8223 7.66058 52.8223C8.33438 52.8223 8.24083 47.7489 11.845 43.6055C12.4404 42.9156 16.0556 32.4032 16.0556 32.4032C16.0556 32.4032 21.347 29.5789 21.1435 26.5986C20.7749 25.5555 20.8368 24.8477 20.8368 24.8477Z" fill="#1D374E"/>
<path d="M16.9879 2.87882C17.3564 3.54524 17.2423 5.40656 17.2781 5.48521C17.4624 6.41378 17.1406 9.25884 16.9728 9.75556C16.8724 10.0701 16.5053 10.3337 16.0694 10.4027C15.6335 10.4716 13.5268 9.85075 12.5298 8.74694C12.2685 8.45444 12.0417 7.57967 12.0417 7.57967C11.8767 7.58385 11.7132 7.54698 11.5659 7.47235C11.4186 7.39772 11.292 7.28762 11.1973 7.15193C11.1052 7.03189 10.6404 6.27857 10.6473 5.9019C10.6542 5.52522 10.5249 4.45453 10.5249 4.45453L11.8134 2.56561L13.6189 1.49219L15.4272 1.76814C15.4272 1.76814 16.8875 2.76016 16.9879 2.87882Z" fill="#F0C6B4"/>
<path d="M11.592 5.42357C12.1036 5.56155 12.336 6.18244 12.336 6.18244C12.336 6.18244 13.2655 4.15279 13.9517 4.0838C14.6379 4.01481 15.5482 4.2218 16.1753 3.86858C16.8023 3.51536 17.1021 2.94412 16.9577 2.63781C13.7399 -1.51113 11.0915 1.87894 11.0915 1.87894C11.0915 1.87894 9.11406 4.47016 11.1973 7.14689C10.7202 6.22659 10.8137 5.74365 10.8137 5.74365C10.8137 5.74365 10.7436 5.20005 11.592 5.42357Z" fill="#56300D"/>
<path d="M18.5376 29.2084C18.5376 29.2084 20.0145 30.9828 20.5824 31.0862C21.1504 31.1897 21.7911 31.2932 22.2532 31.0159C22.7152 30.7385 23.4619 28.7724 23.2488 28.4771C23.0356 28.1818 22.1487 28.8469 22.1487 28.8469C22.1487 28.8469 20.8891 28.1487 20.5673 28.0108C20.2841 27.9184 19.9891 27.8673 19.6914 27.859L19.0244 27.7734L18.2434 28.4205L18.5376 29.2084Z" fill="#0D0D0D"/>
<path d="M12.582 21.6172C12.582 21.6172 12.9698 23.9076 13.0537 24.3974C15.401 25.3632 17.9863 27.2038 19.6873 27.8689C18.5872 28.3021 18.5376 29.2183 18.5376 29.2183C18.5376 29.2183 11.8739 28.2014 10.9085 26.5333C10.496 25.8199 9.31482 22.8245 9.31482 22.8245L12.582 21.6172Z" fill="#F0C6B4"/>
<path d="M8.22436 12.4425C5.32288 13.1627 7.18202 18.1312 7.18202 18.1312L8.85141 23.2087C8.85141 23.2087 11.306 23.5564 12.809 21.742C12.809 20.9432 11.086 16.7404 11.086 16.7404C11.086 16.7404 10.6528 11.9747 8.22436 12.4425Z" fill="#91773D"/>
<path d="M22.1542 19.9077L29.8699 24.3767V23.1749L22.1542 18.7031V19.9077Z" fill="#CBAB5C"/>
<path d="M20.6388 29.7205L12.9245 25.2542L22.1542 19.9062L29.8699 24.3767L20.6388 29.7205Z" fill="#DECB60"/>
<path d="M22.1542 19.9063L12.9245 25.2529V24.0511L22.1542 18.7031V19.9063Z" fill="#91773D"/>
<path d="M23.0783 21.5896C23.0525 21.6613 23.0061 21.7238 22.9449 21.769C22.8836 21.8142 22.8104 21.8401 22.7345 21.8435H22.6479C22.5668 21.8389 22.4878 21.8163 22.4165 21.7774C22.3452 21.7385 22.2833 21.6843 22.2353 21.6186L21.9026 21.1164C21.8242 20.9949 21.8778 20.8942 22.0222 20.8942H23.0329C23.18 20.8942 23.3217 20.8225 23.2777 20.9563L23.0783 21.5896Z" fill="#092D0E"/>
<path d="M20.0076 21.5872C20.0341 21.659 20.0811 21.7214 20.1427 21.7666C20.2044 21.8117 20.2779 21.8377 20.3541 21.8411H20.4367C20.5177 21.8364 20.5967 21.8138 20.668 21.775C20.7394 21.7361 20.8012 21.6818 20.8492 21.6161L21.182 21.1139C21.2617 20.9925 21.2054 20.8918 21.0582 20.8918H20.0475C19.91 20.8918 19.7573 20.8007 19.8014 20.9442L20.0076 21.5872Z" fill="#092D0E"/>
<path d="M22.3261 14.6172H20.7598C20.461 14.7622 20.2089 14.9888 20.0323 15.2708C19.8558 15.5529 19.762 15.8791 19.7615 16.2122V20.7185C19.7615 20.9848 19.9348 21.2456 20.284 21.4498C20.4945 21.5661 20.7219 21.6485 20.9578 21.694L21.1751 22.0803C21.2139 22.1456 21.2674 22.2007 21.3315 22.2413C21.3955 22.2818 21.4683 22.3066 21.5437 22.3135C21.6192 22.3062 21.6919 22.2814 21.7561 22.2409C21.8203 22.2004 21.8743 22.1454 21.9136 22.0803L22.1294 21.694C22.3663 21.6487 22.5946 21.5663 22.806 21.4498C23.1525 21.2469 23.3271 20.9848 23.3271 20.7185V16.2122C23.3261 15.8789 23.2318 15.5526 23.0547 15.2706C22.8777 14.9885 22.6252 14.7621 22.3261 14.6172Z" fill="#104119"/>
<path d="M21.5437 15.7279C21.9832 15.7367 22.4177 15.6327 22.806 15.4257C22.8914 15.3773 22.9712 15.3195 23.0439 15.2533C22.8649 14.9813 22.6172 14.7618 22.3261 14.6172H20.7598C20.469 14.7611 20.222 14.9808 20.0447 15.2533C20.1176 15.3199 20.1979 15.3777 20.284 15.4257C20.6711 15.6332 21.1049 15.7372 21.5437 15.7279Z" fill="#092D0E"/>
<path d="M19.7615 19.0781C19.7615 19.3417 19.9348 19.6052 20.284 19.8066C20.9799 20.2095 22.1088 20.2095 22.806 19.8066C23.1525 19.6066 23.3271 19.3417 23.3271 19.0781V19.1706C23.3271 19.4327 23.1525 19.699 22.806 19.8977C22.1088 20.3033 20.9799 20.3033 20.284 19.8977C19.9348 19.699 19.7615 19.4327 19.7615 19.1706V19.0781Z" fill="#092D0E"/>
<path d="M19.7615 18.5508C19.7615 18.8116 19.9348 19.0765 20.284 19.2779C20.9799 19.6808 22.1088 19.6808 22.806 19.2779C23.1525 19.0779 23.3271 18.8116 23.3271 18.5508V18.6377C23.3271 18.9012 23.1525 19.1675 22.806 19.3704C22.1088 19.7719 20.9799 19.7719 20.284 19.3704C19.9348 19.1661 19.7615 18.9012 19.7615 18.6377V18.5508Z" fill="#092D0E"/>
<path d="M19.7615 18.0195C19.7615 18.2803 19.9348 18.5452 20.284 18.7453C20.9799 19.1496 22.1088 19.1496 22.806 18.7453C23.1525 18.5466 23.3271 18.2803 23.3271 18.0195V18.1051C23.3271 18.3728 23.1525 18.6391 22.806 18.8391C22.1088 19.2393 20.9799 19.2393 20.284 18.8391C19.9348 18.6363 19.7615 18.3728 19.7615 18.1051V18.0195Z" fill="#092D0E"/>
<path d="M19.7615 17.4805C19.7615 17.744 19.9348 18.0075 20.284 18.209C20.9799 18.6119 22.1088 18.6119 22.806 18.209C23.1525 18.0089 23.3271 17.744 23.3271 17.4805V17.5701C23.3271 17.8364 23.1525 18.0972 22.806 18.2987C22.1088 18.7043 20.9799 18.7043 20.284 18.2987C19.9348 18.0972 19.7615 17.8364 19.7615 17.5701V17.4805Z" fill="#092D0E"/>
<path d="M19.7615 16.9453C19.7615 17.213 19.9348 17.4751 20.284 17.678C20.9799 18.0795 22.1088 18.0795 22.806 17.678C23.1525 17.4765 23.3271 17.213 23.3271 16.9453V17.0378C23.3271 17.3137 23.1525 17.5676 22.806 17.7677C22.1088 18.1733 20.9799 18.1733 20.284 17.7677C19.9348 17.5676 19.7615 17.3068 19.7615 17.0378V16.9453Z" fill="#092D0E"/>
<path d="M23.2185 13.6065C23.2185 13.2938 23.1304 12.9876 22.9642 12.7232C22.798 12.4587 22.5605 12.2469 22.2793 12.1122C22.0498 12.0023 21.7979 11.9479 21.5437 11.9535C21.2901 11.9499 21.039 12.0042 20.8093 12.1122C20.5279 12.2467 20.2902 12.4584 20.1237 12.7229C19.9573 12.9873 19.8689 13.2937 19.8688 13.6065V14.535C19.8688 14.7834 20.0338 15.0304 20.3597 15.2249C21.0142 15.603 22.0745 15.603 22.7276 15.2249C23.0563 15.0359 23.2185 14.7875 23.2185 14.535V13.6065Z" fill="#104119"/>
<path d="M21.9726 12.4534C21.8398 12.5215 21.6928 12.557 21.5437 12.557C21.3945 12.557 21.2474 12.5215 21.1146 12.4534C20.8822 12.3154 20.8822 12.0988 21.1146 11.9567C21.2479 11.8901 21.3948 11.8555 21.5437 11.8555C21.6925 11.8555 21.8394 11.8901 21.9726 11.9567C22.2064 12.1002 22.2064 12.3196 21.9726 12.4534Z" fill="#092D0E"/>
<path d="M21.0211 11.375V12.1587C21.0256 12.2052 21.0422 12.2497 21.0693 12.2877C21.0963 12.3257 21.1328 12.3559 21.1751 12.3753C21.2898 12.4329 21.4162 12.4628 21.5444 12.4628C21.6725 12.4628 21.799 12.4329 21.9136 12.3753C21.9553 12.3556 21.9912 12.3252 22.0175 12.2872C22.0438 12.2491 22.0596 12.2048 22.0635 12.1587V11.375H21.0211Z" fill="#104119"/>
<path d="M21.9136 11.5882C21.7992 11.6467 21.6727 11.6772 21.5443 11.6772C21.416 11.6772 21.2894 11.6467 21.1751 11.5882C20.973 11.4709 20.973 11.2777 21.1751 11.1632C21.2894 11.1047 21.416 11.0742 21.5443 11.0742C21.6727 11.0742 21.7992 11.1047 21.9136 11.1632C22.1171 11.2722 22.1171 11.4709 21.9136 11.5882Z" fill="#3A822A"/>
<path d="M20.8973 10.8984V11.5276C20.9018 11.5848 20.9218 11.6396 20.9553 11.6861C20.9888 11.7326 21.0344 11.769 21.0871 11.7911C21.2281 11.8646 21.3848 11.9029 21.5437 11.9029C21.7026 11.9029 21.8591 11.8646 22.0002 11.7911C22.0531 11.769 22.0989 11.7328 22.1326 11.6863C22.1663 11.6398 22.1866 11.5849 22.1913 11.5276V10.8984H20.8973Z" fill="#998841"/>
<path d="M22.0002 11.1649C21.8583 11.2357 21.7021 11.2725 21.5437 11.2725C21.3853 11.2725 21.229 11.2357 21.0871 11.1649C20.8355 11.0187 20.8355 10.78 21.0871 10.631C21.229 10.5603 21.3853 10.5234 21.5437 10.5234C21.7021 10.5234 21.8583 10.5603 22.0002 10.631C22.2532 10.78 22.2532 11.0187 22.0002 11.1649Z" fill="#EBDA7C"/>
<path opacity="0.3" d="M20.2868 12.7663C20.1823 12.9043 20.1493 13.0657 20.2359 13.1264C20.3225 13.1871 20.4573 13.1126 20.5632 12.9719C20.669 12.8311 20.6925 12.6738 20.6155 12.6145C20.5385 12.5552 20.3899 12.6283 20.2868 12.7663Z" fill="white"/>
<path d="M20.1066 23.3023C20.0803 23.3739 20.0335 23.4362 19.9721 23.4814C19.9108 23.5265 19.8375 23.5525 19.7615 23.5562H19.6762C19.5955 23.5521 19.5167 23.5302 19.4454 23.492C19.3741 23.4538 19.3121 23.4004 19.2637 23.3354L18.9309 22.8318C18.8512 22.709 18.9048 22.6069 19.0505 22.6069H20.0627C20.2084 22.6069 20.3486 22.5296 20.3046 22.6718L20.1066 23.3023Z" fill="#092D0E"/>
<path d="M17.0388 23.3044C17.0658 23.3762 17.1131 23.4384 17.175 23.4836C17.2368 23.5287 17.3104 23.5547 17.3867 23.5583H17.4706C17.5512 23.5536 17.6297 23.5315 17.701 23.4934C17.7722 23.4552 17.8344 23.4021 17.8831 23.3376L18.2131 22.834C18.2956 22.7112 18.242 22.609 18.0949 22.609H17.0814C16.937 22.609 16.7899 22.5221 16.8353 22.6601L17.0388 23.3044Z" fill="#092D0E"/>
<path d="M19.3586 16.3398H17.7924C17.4931 16.4836 17.2406 16.7095 17.0639 16.9912C16.8873 17.273 16.7937 17.5992 16.7941 17.9321V22.437C16.7941 22.7019 16.9673 22.9668 17.3152 23.1683C17.525 23.2859 17.7526 23.368 17.989 23.4111L18.2076 23.803C18.242 23.8715 18.2947 23.9291 18.3597 23.9693C18.4248 24.0096 18.4998 24.0309 18.5762 24.0309C18.6526 24.0309 18.7275 24.0096 18.7926 23.9693C18.8577 23.9291 18.9103 23.8715 18.9447 23.803L19.1634 23.4111C19.3993 23.368 19.6265 23.2859 19.8358 23.1683C20.1837 22.9696 20.3597 22.7019 20.3597 22.437V17.9321C20.3593 17.599 20.2651 17.2728 20.088 16.9911C19.9109 16.7094 19.6581 16.4836 19.3586 16.3398Z" fill="#104119"/>
<path d="M18.5748 17.4464C19.0136 17.4559 19.4477 17.3529 19.8357 17.147C19.9214 17.0965 20.0019 17.0378 20.0764 16.9718C19.8994 16.699 19.6511 16.4804 19.3586 16.3398H17.7923C17.5006 16.4805 17.2532 16.6992 17.0773 16.9718C17.1506 17.038 17.2303 17.0967 17.3152 17.147C17.7029 17.3527 18.1364 17.4558 18.5748 17.4464Z" fill="#092D0E"/>
<path d="M16.7941 20.7969C16.7941 21.0632 16.9673 21.3267 17.3152 21.5295C18.011 21.931 19.1372 21.931 19.8358 21.5295C20.1837 21.3281 20.3597 21.0632 20.3597 20.7969V20.8893C20.3597 21.1542 20.1837 21.4178 19.8358 21.6151C19.1372 22.0221 18.011 22.0221 17.3152 21.6151C16.9673 21.415 16.7941 21.1542 16.7941 20.8893V20.7969Z" fill="#092D0E"/>
<path d="M16.7941 20.2656C16.7941 20.5305 16.9673 20.7927 17.3152 20.9914C18.011 21.3984 19.1372 21.3984 19.8358 20.9914C20.1837 20.7927 20.3597 20.5305 20.3597 20.2656V20.3567C20.3597 20.6202 20.1837 20.8824 19.8358 21.0852C19.1372 21.4895 18.011 21.4895 17.3152 21.0852C16.9673 20.8824 16.7941 20.6202 16.7941 20.3567V20.2656Z" fill="#092D0E"/>
<path d="M16.7941 19.7344C16.7941 20.0007 16.9673 20.2601 17.3152 20.4601C18.011 20.8658 19.1372 20.8658 19.8358 20.4601C20.1837 20.2628 20.3597 20.0007 20.3597 19.7344V19.824C20.3597 20.0876 20.1837 20.3539 19.8358 20.5526C19.1372 20.9582 18.011 20.9582 17.3152 20.5526C16.9673 20.3497 16.7941 20.0876 16.7941 19.824V19.7344Z" fill="#092D0E"/>
<path d="M16.7941 19.2031C16.7941 19.468 16.9673 19.7316 17.3152 19.9344C18.011 20.3359 19.1372 20.3359 19.8358 19.9344C20.1837 19.7316 20.3597 19.468 20.3597 19.2031V19.2969C20.3597 19.5591 20.1837 19.8254 19.8358 20.0241C19.1372 20.4283 18.011 20.4283 17.3152 20.0241C16.9673 19.824 16.7941 19.5591 16.7941 19.2969V19.2031Z" fill="#092D0E"/>
<path d="M16.7941 18.668C16.7941 18.9329 16.9673 19.1978 17.3152 19.3992C18.011 19.8021 19.1372 19.8021 19.8358 19.3992C20.1837 19.1991 20.3597 18.9329 20.3597 18.668V18.7604C20.3597 19.0253 20.1837 19.2902 19.8358 19.4889C19.1372 19.8918 18.011 19.8918 17.3152 19.4889C16.9673 19.2889 16.7941 19.0253 16.7941 18.7604V18.668Z" fill="#092D0E"/>
<path d="M20.2511 15.3282C20.2535 15.1078 20.2117 14.8893 20.128 14.6855C20.0444 14.4818 19.9205 14.2971 19.764 14.1425C19.6075 13.9879 19.4215 13.8666 19.2172 13.7859C19.0128 13.7051 18.7943 13.6665 18.5748 13.6725C18.3217 13.6691 18.0709 13.7218 17.8405 13.827C17.5588 13.9623 17.3211 14.1751 17.155 14.4406C16.989 14.7061 16.9015 15.0134 16.9027 15.3268V16.2527C16.9027 16.501 17.0663 16.7494 17.3909 16.9425C18.0468 17.3178 19.1042 17.3178 19.7602 16.9425C20.0861 16.7535 20.2511 16.5038 20.2511 16.2527V15.3282Z" fill="#104119"/>
<path d="M19.0066 14.1716C18.8735 14.238 18.7268 14.2725 18.5782 14.2725C18.4295 14.2725 18.283 14.238 18.1499 14.1716C17.9147 14.0336 17.9147 13.8142 18.1499 13.679C18.283 13.6126 18.4295 13.5781 18.5782 13.5781C18.7268 13.5781 18.8735 13.6126 19.0066 13.679C19.2403 13.817 19.2403 14.0405 19.0066 14.1716Z" fill="#092D0E"/>
<path d="M18.055 13.0938V13.8788C18.0586 13.9244 18.0748 13.968 18.1018 14.0048C18.1288 14.0416 18.1654 14.0701 18.2076 14.0872C18.3213 14.147 18.4478 14.1783 18.5762 14.1783C18.7045 14.1783 18.831 14.147 18.9446 14.0872C18.9867 14.0699 19.0232 14.0413 19.0501 14.0045C19.0771 13.9678 19.0934 13.9243 19.0973 13.8788V13.0938H18.055Z" fill="#104119"/>
<path d="M18.9447 13.3051C18.8308 13.3642 18.7044 13.3951 18.5762 13.3951C18.4479 13.3951 18.3215 13.3642 18.2076 13.3051C18.0041 13.1906 18.0041 13.0002 18.2076 12.8801C18.3221 12.8228 18.4483 12.793 18.5762 12.793C18.7041 12.793 18.8302 12.8228 18.9447 12.8801C19.1441 13.0002 19.1441 13.1906 18.9447 13.3051Z" fill="#3A822A"/>
<path d="M17.9299 12.6133V13.2521C17.9359 13.3086 17.9567 13.3626 17.99 13.4086C18.0233 13.4546 18.0679 13.491 18.1196 13.5143C18.2613 13.5857 18.4177 13.623 18.5762 13.623C18.7347 13.623 18.8911 13.5857 19.0327 13.5143C19.0846 13.4911 19.1295 13.4547 19.163 13.4087C19.1966 13.3627 19.2175 13.3087 19.2239 13.2521V12.6133H17.9299Z" fill="#998841"/>
<path d="M19.0327 12.8786C18.8918 12.9527 18.7352 12.9914 18.5761 12.9914C18.4171 12.9914 18.2604 12.9527 18.1196 12.8786C17.8652 12.7337 17.8652 12.4951 18.1196 12.3488C18.2616 12.2787 18.4178 12.2422 18.5761 12.2422C18.7345 12.2422 18.8906 12.2787 19.0327 12.3488C19.2816 12.4951 19.2816 12.7337 19.0327 12.8786Z" fill="#EBDA7C"/>
<path opacity="0.3" d="M17.3165 14.4835C17.2134 14.6214 17.19 14.7884 17.2657 14.8449C17.3413 14.9015 17.4871 14.8339 17.5943 14.6959C17.7016 14.558 17.7236 14.3951 17.648 14.3344C17.5723 14.2737 17.4211 14.3441 17.3165 14.4835Z" fill="white"/>
<path d="M17.0814 25.0674C17.0549 25.1391 17.0079 25.2013 16.9462 25.2462C16.8845 25.2911 16.811 25.3168 16.7349 25.3199H16.651C16.5705 25.3146 16.4919 25.292 16.4207 25.2537C16.3496 25.2154 16.2875 25.1622 16.2385 25.0977L15.9085 24.5927C15.826 24.4727 15.881 24.3706 16.0267 24.3706H17.0388C17.1873 24.3706 17.3262 24.2988 17.2809 24.434L17.0814 25.0674Z" fill="#092D0E"/>
<path d="M14.0052 25.0671C14.0321 25.1386 14.0792 25.2006 14.1408 25.2454C14.2024 25.2903 14.2757 25.3161 14.3518 25.3196H14.437C14.5177 25.3144 14.5962 25.2918 14.6674 25.2535C14.7385 25.2152 14.8007 25.1619 14.8496 25.0974L15.181 24.5924C15.2621 24.4724 15.2098 24.3703 15.0627 24.3703H14.0506C13.9035 24.3703 13.7564 24.2834 13.8031 24.4241L14.0052 25.0671Z" fill="#092D0E"/>
<path d="M16.3238 18.1016H14.7603C14.4606 18.2448 14.2074 18.4702 14.03 18.7517C13.8526 19.0332 13.7583 19.3594 13.7578 19.6924V24.1987C13.7578 24.4636 13.9338 24.7244 14.2831 24.9286C14.4922 25.0467 14.7195 25.1292 14.9555 25.1728L15.17 25.5592C15.2038 25.6292 15.2565 25.6882 15.3222 25.7295C15.3879 25.7708 15.4638 25.7927 15.5413 25.7927C15.6188 25.7927 15.6947 25.7708 15.7604 25.7295C15.826 25.6882 15.8788 25.6292 15.9126 25.5592L16.1299 25.1728C16.3669 25.1312 16.5955 25.0505 16.8064 24.9341C17.1557 24.7313 17.3289 24.4692 17.3289 24.2042V19.691C17.328 19.3579 17.2331 19.0319 17.0552 18.7506C16.8774 18.4693 16.6238 18.2443 16.3238 18.1016Z" fill="#104119"/>
<path d="M15.5413 19.2109C15.9808 19.2189 16.4151 19.1134 16.8023 18.9046C16.8882 18.856 16.9688 18.7987 17.0429 18.7335C16.8659 18.4603 16.617 18.2416 16.3238 18.1016H14.7603C14.4675 18.2412 14.2191 18.4595 14.0424 18.7321C14.1159 18.7986 14.1966 18.8564 14.2831 18.9046C14.6693 19.1135 15.1026 19.219 15.5413 19.2109Z" fill="#092D0E"/>
<path d="M13.7578 22.5586C13.7578 22.8221 13.9338 23.0857 14.2831 23.2871C14.9775 23.6928 16.1051 23.6928 16.8023 23.2871C17.1516 23.0857 17.3248 22.8221 17.3248 22.5586V22.6496C17.3248 22.9159 17.1516 23.1781 16.8023 23.3782C16.1051 23.7824 14.9775 23.7824 14.2831 23.3782C13.9338 23.1767 13.7578 22.9159 13.7578 22.6496V22.5586Z" fill="#092D0E"/>
<path d="M13.7578 22.0312C13.7578 22.2934 13.9338 22.5569 14.2831 22.7584C14.9775 23.1599 16.1051 23.1599 16.8023 22.7584C17.1516 22.5597 17.3248 22.2934 17.3248 22.0312V22.1195C17.3248 22.3858 17.1516 22.6494 16.8023 22.8508C16.1051 23.2551 14.9775 23.2551 14.2831 22.8508C13.9338 22.648 13.7578 22.3858 13.7578 22.1195V22.0312Z" fill="#092D0E"/>
<path d="M13.7578 21.4922C13.7578 21.7557 13.9338 22.0193 14.2831 22.2207C14.9775 22.625 16.1051 22.625 16.8023 22.2207C17.1516 22.022 17.3248 21.7557 17.3248 21.4922V21.5832C17.3248 21.8454 17.1516 22.1103 16.8023 22.3118C16.1051 22.716 14.9775 22.716 14.2831 22.3118C13.9338 22.1089 13.7578 21.8454 13.7578 21.5832V21.4922Z" fill="#092D0E"/>
<path d="M13.7578 20.9609C13.7578 21.2231 13.9338 21.4866 14.2831 21.6908C14.9775 22.0937 16.1051 22.0937 16.8023 21.6908C17.1516 21.4866 17.3248 21.2231 17.3248 20.9609V21.0493C17.3248 21.3156 17.1516 21.5804 16.8023 21.7805C16.1051 22.1862 14.9775 22.1862 14.2831 21.7805C13.9338 21.5791 13.7578 21.3156 13.7578 21.0493V20.9609Z" fill="#092D0E"/>
<path d="M13.7578 20.4258C13.7578 20.6921 13.9338 20.9528 14.2831 21.157C14.9775 21.5613 16.1051 21.5613 16.8023 21.157C17.1516 20.957 17.3248 20.6921 17.3248 20.4258V20.5182C17.3248 20.7845 17.1516 21.048 16.8023 21.2467C16.1051 21.6496 14.9775 21.6496 14.2831 21.2467C13.9338 21.0453 13.7578 20.7845 13.7578 20.5182V20.4258Z" fill="#092D0E"/>
<path d="M17.2189 17.0844C17.2178 16.7715 17.1292 16.4652 16.9631 16.2003C16.7971 15.9354 16.5603 15.7226 16.2797 15.586C16.0498 15.4776 15.798 15.4243 15.544 15.4301C15.2907 15.4264 15.0399 15.4797 14.8098 15.586C14.529 15.7225 14.292 15.9353 14.1258 16.2002C13.9595 16.465 13.8706 16.7714 13.8692 17.0844V18.013C13.8692 18.2614 14.0342 18.507 14.3587 18.7029C15.016 19.0823 16.0748 19.0823 16.7266 18.7029C17.0525 18.5139 17.2189 18.2669 17.2189 18.013V17.0844Z" fill="#104119"/>
<path d="M15.969 15.9309C15.8369 15.9989 15.6905 16.0344 15.542 16.0344C15.3935 16.0344 15.2472 15.9989 15.1151 15.9309C14.8772 15.7929 14.8772 15.5763 15.1151 15.4355C15.2472 15.3675 15.3935 15.332 15.542 15.332C15.6905 15.332 15.8369 15.3675 15.969 15.4355C16.2055 15.5763 16.2055 15.7943 15.969 15.9309Z" fill="#092D0E"/>
<path d="M15.0188 14.8516V15.6408C15.0233 15.6859 15.0397 15.7289 15.0663 15.7655C15.0929 15.8021 15.1287 15.831 15.1701 15.8491C15.2843 15.909 15.4112 15.9402 15.54 15.9402C15.6688 15.9402 15.7957 15.909 15.9099 15.8491C15.9507 15.8305 15.986 15.8014 16.0123 15.7649C16.0386 15.7284 16.0549 15.6856 16.0597 15.6408V14.8516H15.0188Z" fill="#104119"/>
<path d="M15.9126 15.0638C15.7982 15.123 15.6714 15.1539 15.5427 15.1539C15.414 15.1539 15.2872 15.123 15.1728 15.0638C14.9693 14.9452 14.9693 14.7561 15.1728 14.6347C15.2876 14.5769 15.4142 14.5469 15.5427 14.5469C15.6711 14.5469 15.7978 14.5769 15.9126 14.6347C16.1188 14.7561 16.1188 14.9452 15.9126 15.0638Z" fill="#3A822A"/>
<path d="M14.895 14.375V15.0069C14.9006 15.0639 14.9211 15.1184 14.9544 15.165C14.9878 15.2115 15.0327 15.2483 15.0848 15.2718C15.2267 15.3433 15.3833 15.3805 15.542 15.3805C15.7008 15.3805 15.8573 15.3433 15.9992 15.2718C16.0508 15.2479 16.0954 15.2109 16.1284 15.1645C16.1614 15.118 16.1819 15.0637 16.1876 15.0069V14.375H14.895Z" fill="#998841"/>
<path d="M15.9992 14.6385C15.8581 14.7126 15.7012 14.7513 15.542 14.7513C15.3827 14.7513 15.2258 14.7126 15.0847 14.6385C14.8331 14.5005 14.8331 14.255 15.0847 14.1087C15.2266 14.0372 15.3832 14 15.542 14C15.7007 14 15.8573 14.0372 15.9992 14.1087C16.2563 14.255 16.2563 14.4964 15.9992 14.6385Z" fill="#EBDA7C"/>
<path opacity="0.3" d="M14.2845 16.2376C14.1786 16.3756 14.1579 16.5384 14.2321 16.5977C14.3064 16.6571 14.455 16.5881 14.5595 16.4446C14.664 16.3011 14.6887 16.1451 14.6145 16.09C14.5402 16.0348 14.389 16.0996 14.2845 16.2376Z" fill="white"/>
<path d="M25.7446 23.137C25.7174 23.2076 25.6702 23.2687 25.6089 23.3128C25.5476 23.3569 25.4748 23.3821 25.3995 23.3853H25.3142C25.2336 23.3814 25.1548 23.3596 25.0835 23.3217C25.0122 23.2838 24.9502 23.2306 24.9016 23.1659L24.5716 22.6623C24.4919 22.5368 24.5455 22.4388 24.6912 22.4388H25.7047C25.8504 22.4388 25.9921 22.3629 25.9453 22.5009L25.7446 23.137Z" fill="#092D0E"/>
<path d="M22.6754 23.1401C22.7022 23.2112 22.7495 23.2727 22.8111 23.3169C22.8728 23.3611 22.9461 23.386 23.0219 23.3884H23.1058C23.1863 23.3844 23.2651 23.3627 23.3364 23.3248C23.4077 23.2869 23.4698 23.2337 23.5183 23.169L23.8497 22.6654C23.9295 22.5399 23.8772 22.4419 23.7273 22.4419H22.7193C22.5818 22.4419 22.4265 22.3536 22.4718 22.4916L22.6754 23.1401Z" fill="#092D0E"/>
<path d="M24.9924 16.1641H23.4303C23.1302 16.3076 22.8766 16.5334 22.699 16.8154C22.5213 17.0974 22.4269 17.4241 22.4265 17.7577V22.2612C22.4265 22.5261 22.6025 22.7883 22.949 22.9925C23.1599 23.1088 23.3878 23.1908 23.6242 23.2353L23.8428 23.6258C23.8773 23.694 23.93 23.7512 23.9949 23.7912C24.0599 23.8312 24.1345 23.8524 24.2107 23.8524C24.2869 23.8524 24.3616 23.8312 24.4265 23.7912C24.4915 23.7512 24.5441 23.694 24.5785 23.6258L24.7972 23.2353C25.0321 23.1912 25.2589 23.1112 25.4696 22.998C25.8134 22.7952 25.9908 22.5317 25.9908 22.2667V17.7549C25.9899 17.4225 25.8958 17.097 25.7192 16.8157C25.5427 16.5344 25.2908 16.3085 24.9924 16.1641Z" fill="#104119"/>
<path d="M24.21 17.2734C24.6503 17.2821 25.0855 17.1771 25.4737 16.9685C25.5577 16.919 25.6369 16.8617 25.7102 16.7974C25.534 16.5236 25.2855 16.3044 24.9924 16.1641H23.4303C23.1361 16.3039 22.8867 16.5232 22.7098 16.7974C22.7844 16.8614 22.8644 16.9186 22.949 16.9685C23.3362 17.1771 23.7705 17.2822 24.21 17.2734Z" fill="#092D0E"/>
<path d="M22.4265 20.625C22.4265 20.8913 22.6025 21.1535 22.949 21.3577C23.6462 21.7606 24.7738 21.7606 25.4737 21.3577C25.8175 21.1576 25.9949 20.8913 25.9949 20.625V20.7174C25.9949 20.981 25.8175 21.2473 25.4737 21.4501C24.7738 21.8488 23.6462 21.8488 22.949 21.4501C22.6025 21.2459 22.4265 20.981 22.4265 20.7174V20.625Z" fill="#092D0E"/>
<path d="M22.4265 20.0898C22.4265 20.3575 22.6025 20.6211 22.949 20.8225C23.6462 21.2254 24.7738 21.2254 25.4737 20.8225C25.8175 20.6224 25.9949 20.3575 25.9949 20.0898V20.1837C25.9949 20.4486 25.8175 20.7121 25.4737 20.9108C24.7738 21.3165 23.6462 21.3165 22.949 20.9108C22.6025 20.7108 22.4265 20.4486 22.4265 20.1837V20.0898Z" fill="#092D0E"/>
<path d="M22.4265 19.5625C22.4265 19.826 22.6025 20.0882 22.949 20.291C23.6462 20.6939 24.7738 20.6939 25.4737 20.291C25.8175 20.0882 25.9949 19.826 25.9949 19.5625V19.6522C25.9949 19.9185 25.8175 20.1806 25.4737 20.3807C24.7738 20.7877 23.6462 20.7877 22.949 20.3807C22.6025 20.1792 22.4265 19.9185 22.4265 19.6522V19.5625Z" fill="#092D0E"/>
<path d="M22.4265 19.0312C22.4265 19.2962 22.6025 19.5569 22.949 19.7584C23.6462 20.1723 24.7738 20.1723 25.4737 19.7584C25.8175 19.5583 25.9949 19.2962 25.9949 19.0312V19.121C25.9949 19.3859 25.8175 19.6508 25.4737 19.8508C24.7738 20.2551 23.6462 20.2551 22.949 19.8508C22.6025 19.6494 22.4265 19.3859 22.4265 19.121V19.0312Z" fill="#092D0E"/>
<path d="M22.4265 18.4961C22.4265 18.761 22.6025 19.0218 22.949 19.2246C23.6462 19.6302 24.7738 19.6302 25.4737 19.2246C25.8175 19.0231 25.9949 18.761 25.9949 18.4961V18.5858C25.9949 18.8507 25.8175 19.1156 25.4737 19.3157C24.7738 19.7172 23.6462 19.7172 22.949 19.3157C22.6025 19.1142 22.4265 18.8507 22.4265 18.5858V18.4961Z" fill="#092D0E"/>
<path d="M25.8821 15.1523C25.8818 14.8392 25.7937 14.5324 25.6279 14.2672C25.462 14.002 25.2251 13.7889 24.9443 13.6525C24.7145 13.5438 24.4626 13.4905 24.2086 13.4966C23.9553 13.4929 23.7044 13.5461 23.4743 13.6525C23.1934 13.789 22.9564 14.002 22.7903 14.2672C22.6242 14.5324 22.5358 14.8391 22.5351 15.1523V16.0795C22.5351 16.3278 22.7001 16.5734 23.0246 16.7693C23.6806 17.1502 24.738 17.1502 25.3925 16.7693C25.7171 16.5803 25.8821 16.3333 25.8821 16.0795V15.1523Z" fill="#104119"/>
<path d="M24.6445 14.0002C24.5124 14.0682 24.366 14.1037 24.2175 14.1037C24.069 14.1037 23.9227 14.0682 23.7905 14.0002C23.554 13.8622 23.554 13.6414 23.7905 13.5048C23.9229 13.4375 24.0691 13.4023 24.2175 13.4023C24.3659 13.4023 24.5122 13.4375 24.6445 13.5048C24.8755 13.6414 24.8755 13.8622 24.6445 14.0002Z" fill="#092D0E"/>
<path d="M23.6888 12.9219V13.7056C23.6934 13.7519 23.71 13.7961 23.7371 13.8339C23.7641 13.8717 23.8006 13.9017 23.8428 13.9208C23.9565 13.98 24.0827 14.0109 24.2107 14.0109C24.3387 14.0109 24.4649 13.98 24.5785 13.9208C24.6204 13.9014 24.6565 13.8713 24.6833 13.8335C24.7101 13.7958 24.7265 13.7517 24.7311 13.7056V12.9219H23.6888Z" fill="#104119"/>
<path d="M24.5785 13.1349C24.4645 13.1928 24.3385 13.2229 24.2107 13.2229C24.0829 13.2229 23.9569 13.1928 23.8428 13.1349C23.6393 13.0149 23.6393 12.8272 23.8428 12.7072C23.9565 12.648 24.0827 12.6172 24.2107 12.6172C24.3387 12.6172 24.4649 12.648 24.5785 12.7072C24.782 12.8272 24.782 13.0149 24.5785 13.1349Z" fill="#3A822A"/>
<path d="M23.5623 12.4414V13.0733C23.5675 13.1308 23.588 13.1858 23.6216 13.2327C23.6552 13.2795 23.7007 13.3164 23.7534 13.3396C23.8951 13.4111 24.0514 13.4483 24.2099 13.4483C24.3685 13.4483 24.5249 13.4111 24.6665 13.3396C24.7192 13.3164 24.7647 13.2795 24.7983 13.2327C24.8319 13.1858 24.8524 13.1308 24.8576 13.0733V12.4414H23.5623Z" fill="#998841"/>
<path d="M24.6666 12.7063C24.5251 12.7784 24.3687 12.816 24.21 12.816C24.0513 12.816 23.8949 12.7784 23.7535 12.7063C23.5005 12.5559 23.5005 12.3213 23.7535 12.1792C23.8943 12.1051 24.051 12.0664 24.21 12.0664C24.369 12.0664 24.5257 12.1051 24.6666 12.1792C24.9196 12.3213 24.9196 12.5559 24.6666 12.7063Z" fill="#EBDA7C"/>
<path opacity="0.3" d="M22.9504 14.305C22.8459 14.443 22.8239 14.6085 22.9022 14.6665C22.9806 14.7244 23.125 14.6568 23.2295 14.5133C23.334 14.3698 23.3587 14.2139 23.2817 14.1601C23.2047 14.1063 23.059 14.167 22.9504 14.305Z" fill="white"/>
<path d="M22.7785 24.8493C22.7519 24.9216 22.7048 24.9845 22.643 25.0301C22.5811 25.0757 22.5072 25.1021 22.4306 25.106H22.3481C22.2671 25.1015 22.1882 25.0792 22.1169 25.0405C22.0456 25.0019 21.9836 24.9479 21.9355 24.8824L21.6069 24.3788C21.5258 24.256 21.5794 24.1581 21.7252 24.1581H22.7372C22.8816 24.1581 23.0246 24.0808 22.9779 24.2202L22.7785 24.8493Z" fill="#092D0E"/>
<path d="M19.7064 24.8463C19.7335 24.9183 19.7807 24.9808 19.8425 25.0264C19.9042 25.0719 19.9779 25.0986 20.0544 25.103H20.1397C20.2206 25.0985 20.2995 25.0762 20.3708 25.0375C20.4422 24.9989 20.5041 24.9449 20.5522 24.8794L20.8822 24.3758C20.962 24.253 20.9083 24.1551 20.7626 24.1551H19.7518C19.6061 24.1551 19.459 24.0626 19.5043 24.202L19.7064 24.8463Z" fill="#092D0E"/>
<path d="M22.0318 17.8828H20.4683C20.1685 18.0273 19.9155 18.2538 19.7384 18.5362C19.5613 18.8187 19.4673 19.1455 19.4672 19.4792V23.9855C19.4672 24.2518 19.6405 24.5126 19.987 24.7126C20.1983 24.8309 20.4272 24.9143 20.6649 24.9596L20.8822 25.3446C20.9209 25.4099 20.9744 25.4651 21.0385 25.5057C21.1025 25.5462 21.1753 25.5709 21.2507 25.5777C21.3256 25.571 21.3979 25.5464 21.4613 25.5058C21.5248 25.4652 21.5775 25.4099 21.6152 25.3446L21.8365 24.9596C22.0732 24.9136 22.3011 24.8302 22.5117 24.7126C22.8555 24.5126 23.0328 24.2518 23.0328 23.9855V19.4792C23.0324 19.1456 22.9383 18.8189 22.7612 18.5365C22.5842 18.2541 22.3313 18.0276 22.0318 17.8828Z" fill="#104119"/>
<path d="M21.2439 19.0013C21.6831 19.0098 22.1172 18.9053 22.5048 18.6978C22.5911 18.6502 22.6711 18.5918 22.7427 18.5239C22.5652 18.2514 22.3171 18.0324 22.0249 17.8906H20.4614C20.1685 18.0318 19.9198 18.2509 19.7422 18.5239C19.8142 18.5914 19.8941 18.6498 19.9801 18.6978C20.3686 18.9057 20.8037 19.0102 21.2439 19.0013Z" fill="#092D0E"/>
<path d="M19.4603 22.3438C19.4603 22.6045 19.6336 22.8708 19.9802 23.0695C20.6801 23.4752 21.8049 23.4752 22.5048 23.0695C22.8486 22.8708 23.026 22.6045 23.026 22.3438V22.4334C23.026 22.6942 22.8486 22.9646 22.5048 23.1606C21.8049 23.5745 20.6801 23.5745 19.9802 23.1606C19.6336 22.9605 19.4603 22.6942 19.4603 22.4334V22.3438Z" fill="#092D0E"/>
<path d="M19.4603 21.8125C19.4603 22.0747 19.6336 22.3396 19.9802 22.5424C20.6801 22.9467 21.8049 22.9467 22.5048 22.5424C22.8486 22.341 23.026 22.0747 23.026 21.8125V21.9036C23.026 22.1685 22.8486 22.4348 22.5048 22.6335C21.8049 23.0378 20.6801 23.0378 19.9802 22.6335C19.6336 22.4348 19.4603 22.1685 19.4603 21.9036V21.8125Z" fill="#092D0E"/>
<path d="M19.4603 21.2812C19.4603 21.5462 19.6336 21.8083 19.9802 22.0111C20.6801 22.4113 21.8049 22.4113 22.5048 22.0111C22.8486 21.8125 23.026 21.5462 23.026 21.2812V21.3695C23.026 21.6358 22.8486 21.9008 22.5048 22.0994C21.8049 22.5023 20.6801 22.5023 19.9802 22.0994C19.6336 21.9008 19.4603 21.6358 19.4603 21.3695V21.2812Z" fill="#092D0E"/>
<path d="M19.4603 20.7461C19.4603 21.011 19.6336 21.2759 19.9802 21.476C20.6801 21.8789 21.8049 21.8789 22.5048 21.476C22.8486 21.2773 23.026 21.011 23.026 20.7461V20.8372C23.026 21.1007 22.8486 21.367 22.5048 21.5657C21.8049 21.9713 20.6801 21.9713 19.9802 21.5657C19.6336 21.3629 19.4603 21.1007 19.4603 20.8372V20.7461Z" fill="#092D0E"/>
<path d="M19.4603 20.2109C19.4603 20.4786 19.6336 20.7422 19.9802 20.9436C20.6801 21.3465 21.8049 21.3465 22.5048 20.9436C22.8486 20.7435 23.026 20.4786 23.026 20.2109V20.3048C23.026 20.5697 22.8486 20.8318 22.5048 21.0347C21.8049 21.4403 20.6801 21.4403 19.9802 21.0347C19.6336 20.8318 19.4603 20.5697 19.4603 20.3048V20.2109Z" fill="#092D0E"/>
<path d="M22.916 16.8735C22.9161 16.5602 22.828 16.2531 22.6618 15.9878C22.4957 15.7225 22.2582 15.5096 21.9768 15.3737C21.7477 15.2662 21.4968 15.2133 21.2439 15.2192C20.9907 15.2153 20.7399 15.268 20.5096 15.3737C20.2271 15.5084 19.9885 15.7209 19.8217 15.9865C19.6549 16.252 19.5668 16.5597 19.5676 16.8735V17.8007C19.5676 18.0491 19.7326 18.2961 20.0585 18.4906C20.7131 18.8659 21.7719 18.8659 22.4265 18.4906C22.7524 18.3016 22.916 18.0532 22.916 17.8007V16.8735Z" fill="#104119"/>
<path d="M21.6702 15.7147C21.538 15.7834 21.3913 15.8192 21.2425 15.8192C21.0936 15.8192 20.947 15.7834 20.8148 15.7147C20.5783 15.5767 20.5783 15.3559 20.8148 15.2207C20.9472 15.1527 21.0938 15.1172 21.2425 15.1172C21.3912 15.1172 21.5378 15.1527 21.6702 15.2207C21.9053 15.3559 21.9053 15.5767 21.6702 15.7147Z" fill="#092D0E"/>
<path d="M20.7227 14.6406V15.4244C20.7264 15.4709 20.7425 15.5156 20.7694 15.5537C20.7962 15.5918 20.8328 15.622 20.8753 15.641C20.9897 15.6961 21.1149 15.7248 21.2418 15.7248C21.3687 15.7248 21.4939 15.6961 21.6083 15.641C21.6512 15.6221 21.6884 15.592 21.716 15.554C21.7435 15.5159 21.7605 15.4712 21.7651 15.4244V14.6406H20.7227Z" fill="#104119"/>
<path d="M21.6083 14.8512C21.4949 14.9097 21.3693 14.9402 21.2418 14.9402C21.1143 14.9402 20.9887 14.9097 20.8753 14.8512C20.6677 14.7353 20.6677 14.5422 20.8753 14.4249C20.9887 14.3664 21.1143 14.3359 21.2418 14.3359C21.3693 14.3359 21.4949 14.3664 21.6083 14.4249C21.8145 14.5422 21.8145 14.7353 21.6083 14.8512Z" fill="#3A822A"/>
<path d="M20.5962 14.1719V14.8038C20.6006 14.8607 20.6204 14.9152 20.6537 14.9614C20.6869 15.0077 20.7322 15.0438 20.7846 15.066C20.9263 15.1387 21.0832 15.1767 21.2425 15.1767C21.4017 15.1767 21.5586 15.1387 21.7004 15.066C21.7528 15.0438 21.7983 15.0076 21.8317 14.9614C21.8652 14.9152 21.8854 14.8607 21.8902 14.8038V14.1719H20.5962Z" fill="#998841"/>
<path d="M21.7004 14.4269C21.5586 14.4997 21.4017 14.5377 21.2425 14.5377C21.0832 14.5377 20.9264 14.4997 20.7846 14.4269C20.5316 14.2793 20.5316 14.0475 20.7846 13.8957C20.9271 13.8255 21.0837 13.7891 21.2425 13.7891C21.4012 13.7891 21.5579 13.8255 21.7004 13.8957C21.952 14.0475 21.952 14.2793 21.7004 14.4269Z" fill="#EBDA7C"/>
<path opacity="0.3" d="M19.9842 16.0298C19.877 16.1677 19.855 16.3306 19.9334 16.3926C20.0118 16.4547 20.1561 16.3788 20.262 16.2353C20.3679 16.0918 20.3899 15.9401 20.3116 15.8807C20.2332 15.8214 20.0901 15.8904 19.9842 16.0298Z" fill="white"/>
<path d="M19.7491 26.6048C19.7233 26.6769 19.6767 26.7396 19.6152 26.7851C19.5538 26.8305 19.4802 26.8566 19.404 26.86H19.32C19.2392 26.8551 19.1605 26.8325 19.0892 26.7939C19.018 26.7553 18.956 26.7016 18.9075 26.6365L18.5762 26.1301C18.4978 26.0087 18.55 25.9121 18.6972 25.9121H19.7065C19.8536 25.9121 19.9966 25.8335 19.9499 25.977L19.7491 26.6048Z" fill="#092D0E"/>
<path d="M16.6799 26.605C16.7059 26.677 16.7525 26.7396 16.814 26.7851C16.8754 26.8305 16.9488 26.8567 17.0251 26.8603H17.1103C17.1913 26.8558 17.2702 26.8334 17.3415 26.7948C17.4128 26.7562 17.4748 26.7022 17.5229 26.6368L17.8556 26.1304C17.9326 26.0089 17.8817 25.9124 17.736 25.9124H16.7239C16.5795 25.9124 16.4324 25.8199 16.475 25.962L16.6799 26.605Z" fill="#092D0E"/>
<path d="M18.9983 19.6367H17.4321C17.1324 19.781 16.8795 20.0072 16.7024 20.2894C16.5253 20.5716 16.4312 20.8982 16.431 21.2317V25.738C16.431 26.0029 16.607 26.2637 16.9522 26.4679C17.1636 26.5839 17.3919 26.6659 17.6287 26.7107L17.846 27.1012C17.8849 27.1661 17.9386 27.2208 18.0027 27.2609C18.0667 27.301 18.1394 27.3252 18.2146 27.3316C18.2898 27.3259 18.3625 27.3019 18.4264 27.2618C18.4904 27.2216 18.5437 27.1665 18.5817 27.1012L18.8017 26.7107C19.0377 26.6663 19.2653 26.5844 19.4755 26.4679C19.8207 26.2651 19.9995 26.0029 19.9995 25.738V21.2317C19.9989 20.8983 19.9047 20.5718 19.7277 20.2896C19.5506 20.0075 19.2978 19.7812 18.9983 19.6367Z" fill="#104119"/>
<path d="M18.2146 20.7474C18.6539 20.757 19.0883 20.6524 19.4755 20.4439C19.5607 20.3954 19.6408 20.3386 19.7148 20.2742C19.5382 20.0003 19.2905 19.7799 18.9983 19.6367H17.4321C17.1394 19.7791 16.8915 19.9996 16.7156 20.2742C16.7884 20.3387 16.8677 20.3956 16.9522 20.4439C17.34 20.652 17.7748 20.7566 18.2146 20.7474Z" fill="#092D0E"/>
<path d="M16.431 24.1016C16.431 24.3651 16.607 24.6286 16.9522 24.8328C17.6494 25.2344 18.777 25.2344 19.4755 24.8328C19.8207 24.6286 19.9995 24.3651 19.9995 24.1016V24.194C19.9995 24.4562 19.8207 24.7224 19.4755 24.9211C18.777 25.3268 17.6494 25.3268 16.9522 24.9211C16.607 24.7211 16.431 24.4562 16.431 24.194V24.1016Z" fill="#092D0E"/>
<path d="M16.431 23.5664C16.431 23.8313 16.607 24.0948 16.9522 24.2963C17.6494 24.7019 18.777 24.7019 19.4755 24.2963C19.8207 24.0962 19.9995 23.8313 19.9995 23.5664V23.6561C19.9995 23.9238 19.8207 24.1859 19.4755 24.386C18.777 24.7889 17.6494 24.7889 16.9522 24.386C16.607 24.1859 16.431 23.9238 16.431 23.6561V23.5664Z" fill="#092D0E"/>
<path d="M16.431 23.0312C16.431 23.2975 16.607 23.5597 16.9522 23.7625C17.6494 24.1613 18.777 24.1613 19.4755 23.7625C19.8207 23.5611 19.9995 23.2975 19.9995 23.0312V23.1209C19.9995 23.3969 19.8207 23.6521 19.4755 23.8494C18.777 24.2551 17.6494 24.2551 16.9522 23.8494C16.607 23.6508 16.431 23.39 16.431 23.1209V23.0312Z" fill="#092D0E"/>
<path d="M16.431 22.5C16.431 22.7663 16.607 23.0312 16.9522 23.2326C17.6494 23.6355 18.777 23.6355 19.4755 23.2326C19.8207 23.0326 19.9995 22.7663 19.9995 22.5V22.5938C19.9995 22.8587 19.8207 23.1209 19.4755 23.3196C18.777 23.7335 17.6494 23.7335 16.9522 23.3196C16.607 23.1209 16.431 22.8587 16.431 22.5938V22.5Z" fill="#092D0E"/>
<path d="M16.431 21.9688C16.431 22.2337 16.607 22.4944 16.9522 22.6945C17.6494 23.1015 18.777 23.1015 19.4755 22.6945C19.8207 22.4958 19.9995 22.2337 19.9995 21.9688V22.0612C19.9995 22.3247 19.8207 22.5883 19.4755 22.7897C18.777 23.1926 17.6494 23.1926 16.9522 22.7897C16.607 22.5883 16.431 22.3247 16.431 22.0612V21.9688Z" fill="#092D0E"/>
<path d="M19.8894 18.6235C19.8887 18.3105 19.8004 18.004 19.6343 17.739C19.4682 17.4741 19.2311 17.2613 18.9502 17.1251C18.7204 17.0165 18.4685 16.9631 18.2146 16.9692C17.9613 16.9655 17.7103 17.0188 17.4802 17.1251C17.199 17.261 16.9616 17.4736 16.7952 17.7386C16.6289 18.0036 16.5403 18.3103 16.5397 18.6235V19.5507C16.5397 19.7991 16.7061 20.0447 17.0292 20.2406C17.6851 20.6214 18.7426 20.6214 19.3971 20.2406C19.723 20.0516 19.8894 19.8046 19.8894 19.5507V18.6235Z" fill="#104119"/>
<path d="M18.6435 17.4819C18.5101 17.548 18.3633 17.5824 18.2145 17.5824C18.0657 17.5824 17.9189 17.548 17.7855 17.4819C17.5503 17.3439 17.5503 17.1218 17.7855 16.9852C17.9186 16.9179 18.0655 16.8828 18.2145 16.8828C18.3636 16.8828 18.5105 16.9179 18.6435 16.9852C18.8773 17.1149 18.8773 17.3439 18.6435 17.4819Z" fill="#092D0E"/>
<path d="M17.6934 16.3906V17.1743C17.6972 17.2207 17.7136 17.2651 17.7407 17.3028C17.7678 17.3405 17.8047 17.37 17.8473 17.3882C17.9614 17.4451 18.0871 17.4747 18.2145 17.4747C18.3419 17.4747 18.4676 17.4451 18.5817 17.3882C18.6242 17.3697 18.661 17.3401 18.6884 17.3025C18.7157 17.2649 18.7325 17.2206 18.737 17.1743V16.3906H17.6934Z" fill="#104119"/>
<path d="M18.5817 16.6093C18.4679 16.6672 18.3421 16.6973 18.2145 16.6973C18.087 16.6973 17.9611 16.6672 17.8473 16.6093C17.6424 16.4893 17.6424 16.2989 17.8473 16.1803C17.9614 16.1234 18.0871 16.0938 18.2145 16.0938C18.3419 16.0938 18.4676 16.1234 18.5817 16.1803C18.7852 16.2989 18.7852 16.4893 18.5817 16.6093Z" fill="#3A822A"/>
<path d="M17.5682 15.9141V16.5446C17.5729 16.6021 17.593 16.6572 17.6265 16.7041C17.6599 16.751 17.7053 16.7879 17.758 16.8109C17.8997 16.883 18.0564 16.9206 18.2152 16.9206C18.3741 16.9206 18.5307 16.883 18.6724 16.8109C18.7247 16.7878 18.7699 16.751 18.8033 16.7044C18.8367 16.6578 18.857 16.6031 18.8622 16.546V15.9141H17.5682Z" fill="#998841"/>
<path d="M18.6724 16.1762C18.5313 16.2503 18.3745 16.289 18.2153 16.289C18.056 16.289 17.8991 16.2503 17.758 16.1762C17.505 16.0382 17.505 15.7954 17.758 15.6478C17.8999 15.5763 18.0565 15.5391 18.2153 15.5391C18.374 15.5391 18.5305 15.5763 18.6724 15.6478C18.9241 15.7954 18.9241 16.0341 18.6724 16.1762Z" fill="#EBDA7C"/>
<path opacity="0.3" d="M16.9563 17.7864C16.8504 17.9244 16.8257 18.0872 16.9055 18.1438C16.9852 18.2003 17.1282 18.1327 17.2341 17.9934C17.3399 17.854 17.3606 17.6926 17.285 17.6374C17.2093 17.5822 17.0622 17.6429 16.9563 17.7864Z" fill="white"/>
<path d="M28.6323 24.7926C28.6048 24.8642 28.5571 24.9264 28.4951 24.9714C28.4331 25.0165 28.3595 25.0425 28.283 25.0465H28.1992C28.1185 25.0423 28.0396 25.0204 27.9683 24.9822C27.897 24.9441 27.835 24.8906 27.7866 24.8257L27.4566 24.3207C27.3727 24.1993 27.4291 24.0986 27.5721 24.0986H28.5856C28.7327 24.0986 28.8716 24.0227 28.829 24.1634L28.6323 24.7926Z" fill="#092D0E"/>
<path d="M25.5562 24.7905C25.583 24.8619 25.63 24.9239 25.6913 24.9689C25.7525 25.014 25.8255 25.0402 25.9014 25.0444H25.9866C26.0673 25.0403 26.1462 25.0183 26.2175 24.9802C26.2888 24.942 26.3508 24.8886 26.3992 24.8237L26.732 24.3187C26.8145 24.1973 26.7595 24.0965 26.6151 24.0965H25.6071C25.4586 24.0965 25.3128 24.011 25.3582 24.149L25.5562 24.7905Z" fill="#092D0E"/>
<path d="M27.8747 17.832H26.3098C26.0105 17.9765 25.7581 18.2029 25.5814 18.4851C25.4048 18.7673 25.3112 19.0938 25.3115 19.427V23.9333C25.3115 24.1969 25.4834 24.4604 25.8299 24.6618C26.0413 24.7796 26.2701 24.8625 26.5078 24.9074L26.7223 25.2951C26.7564 25.3644 26.8091 25.4227 26.8744 25.4635C26.9398 25.5042 27.0152 25.5258 27.0922 25.5258C27.1692 25.5258 27.2446 25.5042 27.31 25.4635C27.3754 25.4227 27.4281 25.3644 27.4621 25.2951L27.6794 24.9074C27.9152 24.8625 28.1423 24.7796 28.3518 24.6618C28.7011 24.4618 28.8757 24.1969 28.8757 23.9333V19.427C28.875 19.0937 28.7808 18.7672 28.6037 18.4851C28.4267 18.203 28.174 17.9767 27.8747 17.832Z" fill="#104119"/>
<path d="M27.0922 18.9414C27.5309 18.9509 27.9648 18.8468 28.3518 18.6392C28.4379 18.5908 28.519 18.5339 28.5939 18.4695C28.4165 18.1952 28.1678 17.9748 27.8747 17.832H26.3098C26.017 17.9754 25.7685 18.1956 25.5906 18.4695C25.6655 18.5327 25.7455 18.5894 25.8299 18.6392C26.2181 18.8463 26.6526 18.9503 27.0922 18.9414Z" fill="#092D0E"/>
<path d="M25.3115 22.2969C25.3115 22.559 25.4834 22.8226 25.8299 23.024C26.5284 23.4283 27.656 23.4283 28.3518 23.024C28.7011 22.8239 28.8757 22.559 28.8757 22.2969V22.3866C28.8757 22.6501 28.7011 22.9164 28.3518 23.1179C27.656 23.5207 26.5284 23.5207 25.8299 23.1179C25.4834 22.9164 25.3115 22.6501 25.3115 22.3866V22.2969Z" fill="#092D0E"/>
<path d="M25.3115 21.7578C25.3115 22.0241 25.4834 22.2849 25.8299 22.4891C26.5284 22.8892 27.656 22.8892 28.3518 22.4891C28.7011 22.2863 28.8757 22.0241 28.8757 21.7578V21.8475C28.8757 22.1138 28.7011 22.3787 28.3518 22.5788C27.656 22.9817 26.5284 22.9817 25.8299 22.5788C25.4834 22.3773 25.3115 22.1138 25.3115 21.8475V21.7578Z" fill="#092D0E"/>
<path d="M25.3115 21.2305C25.3115 21.494 25.4834 21.7562 25.8299 21.9576C26.5284 22.3605 27.656 22.3605 28.3518 21.9576C28.7011 21.7589 28.8757 21.494 28.8757 21.2305V21.3202C28.8757 21.5837 28.7011 21.8486 28.3518 22.0487C27.656 22.4516 26.5284 22.4516 25.8299 22.0487C25.4834 21.8459 25.3115 21.5837 25.3115 21.3202V21.2305Z" fill="#092D0E"/>
<path d="M25.3115 20.6953C25.3115 20.9588 25.4834 21.221 25.8299 21.4238C26.5284 21.8295 27.656 21.8295 28.3518 21.4238C28.7011 21.2238 28.8757 20.9588 28.8757 20.6953V20.7864C28.8757 21.0513 28.7011 21.3176 28.3518 21.5163C27.656 21.9192 26.5284 21.9192 25.8299 21.5163C25.4834 21.3134 25.3115 21.0513 25.3115 20.7864V20.6953Z" fill="#092D0E"/>
<path d="M25.3115 20.1641C25.3115 20.4262 25.4834 20.6911 25.8299 20.8926C26.5284 21.2968 27.656 21.2968 28.3518 20.8926C28.7011 20.6911 28.8757 20.4262 28.8757 20.1641V20.2524C28.8757 20.5201 28.7011 20.7849 28.3518 20.985C27.656 21.3865 26.5284 21.3865 25.8299 20.985C25.4834 20.7836 25.3115 20.5201 25.3115 20.2524V20.1641Z" fill="#092D0E"/>
<path d="M28.7699 16.8188C28.77 16.5058 28.6817 16.1992 28.5152 15.9345C28.3488 15.6697 28.1109 15.4578 27.8293 15.3232C27.6004 15.2129 27.3488 15.1585 27.0949 15.1645C26.8761 15.161 26.6587 15.2013 26.4555 15.2829C26.2522 15.3646 26.0672 15.486 25.9112 15.6401C25.7552 15.7942 25.6313 15.9779 25.5467 16.1805C25.4622 16.3831 25.4187 16.6006 25.4187 16.8202V17.7474C25.4187 17.9958 25.5851 18.2441 25.9097 18.4373C26.567 18.8181 27.6244 18.8181 28.2803 18.4373C28.6048 18.2496 28.7699 18.0013 28.7699 17.7474V16.8188Z" fill="#104119"/>
<path d="M27.5212 15.6642C27.3886 15.7329 27.2414 15.7687 27.0921 15.7687C26.9429 15.7687 26.7958 15.7329 26.6632 15.6642C26.4266 15.5262 26.4266 15.3095 26.6632 15.1716C26.7965 15.105 26.9433 15.0703 27.0921 15.0703C27.241 15.0703 27.3879 15.105 27.5212 15.1716C27.7577 15.3095 27.7577 15.5289 27.5212 15.6642Z" fill="#092D0E"/>
<path d="M26.5696 14.5898V15.3722C26.5732 15.4182 26.5892 15.4624 26.6158 15.5001C26.6425 15.5377 26.6788 15.5674 26.7209 15.586C26.8355 15.6445 26.9622 15.6751 27.0908 15.6751C27.2194 15.6751 27.3461 15.6445 27.4607 15.586C27.5028 15.5672 27.539 15.5374 27.5659 15.4998C27.5927 15.4622 27.6091 15.4182 27.6133 15.3722V14.5898H26.5696Z" fill="#104119"/>
<path d="M27.4621 14.8033C27.348 14.8631 27.221 14.8944 27.0922 14.8944C26.9634 14.8944 26.8365 14.8631 26.7223 14.8033C26.5201 14.686 26.5201 14.497 26.7223 14.3769C26.8371 14.3191 26.9637 14.2891 27.0922 14.2891C27.2206 14.2891 27.3473 14.3191 27.4621 14.3769C27.6698 14.497 27.6698 14.686 27.4621 14.8033Z" fill="#3A822A"/>
<path d="M26.4473 14.1094V14.744C26.4519 14.8008 26.4719 14.8552 26.5051 14.9014C26.5383 14.9476 26.5835 14.9838 26.6357 15.0062C26.7765 15.0803 26.9332 15.119 27.0922 15.119C27.2512 15.119 27.4079 15.0803 27.5488 15.0062C27.6009 14.9838 27.646 14.9476 27.6792 14.9014C27.7124 14.8552 27.7325 14.8008 27.7372 14.744V14.1094H26.4473Z" fill="#998841"/>
<path d="M27.5488 14.3725C27.4075 14.4453 27.251 14.4832 27.0922 14.4832C26.9334 14.4832 26.7769 14.4453 26.6357 14.3725C26.3827 14.2263 26.3827 13.9903 26.6357 13.8441C26.7771 13.7719 26.9335 13.7344 27.0922 13.7344C27.2509 13.7344 27.4073 13.7719 27.5488 13.8441C27.8073 13.9903 27.8073 14.2263 27.5488 14.3725Z" fill="#EBDA7C"/>
<path opacity="0.3" d="M25.8354 15.9838C25.7295 16.1218 25.7061 16.2819 25.7831 16.3439C25.8601 16.406 26.0045 16.3288 26.109 16.1894C26.2135 16.05 26.2465 15.8914 26.164 15.8334C26.0815 15.7755 25.9385 15.8417 25.8354 15.9838Z" fill="white"/>
<path d="M25.6608 26.5166C25.6345 26.5887 25.5876 26.6514 25.5259 26.6968C25.4643 26.7422 25.3906 26.7683 25.3142 26.7718H25.229C25.1481 26.7675 25.0693 26.7454 24.998 26.707C24.9267 26.6686 24.8647 26.6149 24.8164 26.5497L24.485 26.0475C24.4053 25.9247 24.4589 25.8253 24.6047 25.8253H25.6154C25.7625 25.8253 25.9027 25.7494 25.8601 25.8888L25.6608 26.5166Z" fill="#092D0E"/>
<path d="M22.5818 26.5174C22.6084 26.5895 22.6557 26.6521 22.7175 26.6975C22.7794 26.7429 22.8531 26.769 22.9297 26.7726H23.0136C23.0946 26.7689 23.1736 26.747 23.245 26.7086C23.3164 26.6701 23.3783 26.6161 23.4262 26.5505L23.7562 26.0483C23.8387 25.9255 23.7823 25.8261 23.6393 25.8261H22.6272C22.4814 25.8261 22.3343 25.735 22.3796 25.8744L22.5818 26.5174Z" fill="#092D0E"/>
<path d="M24.9057 19.5508H23.3409C23.0422 19.6952 22.7901 19.9212 22.6135 20.2028C22.4369 20.4845 22.343 20.8103 22.3425 21.143V25.6507C22.3425 25.9156 22.5158 26.1778 22.8637 26.3778C23.0735 26.4975 23.3017 26.5814 23.5389 26.6262L23.7548 27.0139C23.7891 27.0824 23.8418 27.14 23.9068 27.1803C23.9719 27.2205 24.0469 27.2418 24.1233 27.2418C24.1998 27.2418 24.2747 27.2205 24.3398 27.1803C24.4049 27.14 24.4575 27.0824 24.4919 27.0139L24.7091 26.6262C24.9468 26.5814 25.1754 26.4975 25.3857 26.3778C25.7336 26.1819 25.9069 25.9156 25.9069 25.6507V21.143C25.9065 20.8099 25.8122 20.4837 25.6351 20.202C25.458 19.9203 25.2052 19.6946 24.9057 19.5508Z" fill="#104119"/>
<path d="M24.122 20.6654C24.562 20.6749 24.9972 20.5708 25.3857 20.3632C25.4702 20.3135 25.5494 20.2553 25.6222 20.1894C25.4457 19.916 25.1979 19.6965 24.9057 19.5547H23.3409C23.0492 19.6971 22.8012 19.9159 22.623 20.188C22.6974 20.2541 22.778 20.3128 22.8637 20.3632C23.2503 20.5707 23.6837 20.6747 24.122 20.6654Z" fill="#092D0E"/>
<path d="M22.3425 24.0156C22.3425 24.2819 22.5158 24.5454 22.8637 24.7455C23.5609 25.147 24.6871 25.147 25.3857 24.7455C25.7336 24.5468 25.9069 24.2819 25.9069 24.0156V24.1067C25.9069 24.3716 25.7336 24.6365 25.3857 24.8352C24.6871 25.2408 23.5609 25.2408 22.8637 24.8352C22.5158 24.6365 22.3425 24.3716 22.3425 24.1067V24.0156Z" fill="#092D0E"/>
<path d="M22.3425 23.4805C22.3425 23.7454 22.5158 24.0117 22.8637 24.2117C23.5609 24.616 24.6871 24.616 25.3857 24.2117C25.7336 24.0117 25.9069 23.7454 25.9069 23.4805V23.5729C25.9069 23.8378 25.7336 24.0986 25.3857 24.3C24.6871 24.7057 23.5609 24.7057 22.8637 24.3C22.5158 24.0986 22.3425 23.8378 22.3425 23.5729V23.4805Z" fill="#092D0E"/>
<path d="M22.3425 22.9453C22.3425 23.213 22.5158 23.4765 22.8637 23.6766C23.5609 24.0808 24.6871 24.0808 25.3857 23.6766C25.7336 23.4765 25.9069 23.213 25.9069 22.9453V23.0391C25.9069 23.304 25.7336 23.5703 25.3857 23.7676C24.6871 24.1733 23.5609 24.1733 22.8637 23.7676C22.5158 23.5662 22.3425 23.304 22.3425 23.0391V22.9453Z" fill="#092D0E"/>
<path d="M22.3425 22.4141C22.3425 22.6817 22.5158 22.9425 22.8637 23.1426C23.5609 23.5455 24.6871 23.5455 25.3857 23.1426C25.7336 22.9439 25.9069 22.6817 25.9069 22.4141V22.5051C25.9069 22.7714 25.7336 23.0349 25.3857 23.2336C24.6871 23.6393 23.5609 23.6393 22.8637 23.2336C22.5158 23.0336 22.3425 22.7714 22.3425 22.5051V22.4141Z" fill="#092D0E"/>
<path d="M22.3425 21.8828C22.3425 22.1491 22.5158 22.4099 22.8637 22.6127C23.5609 23.0156 24.6871 23.0156 25.3857 22.6127C25.7336 22.4099 25.9069 22.1491 25.9069 21.8828V21.9753C25.9069 22.2347 25.7336 22.5024 25.3857 22.7024C24.6871 23.1067 23.5609 23.1067 22.8637 22.7024C22.5158 22.501 22.3425 22.2347 22.3425 21.9753V21.8828Z" fill="#092D0E"/>
<path d="M25.7996 18.539C25.8015 18.3187 25.7592 18.1003 25.6752 17.8968C25.5912 17.6932 25.4673 17.5087 25.3108 17.3542C25.1542 17.1997 24.9683 17.0784 24.7641 16.9975C24.5598 16.9166 24.3415 16.8778 24.122 16.8833C23.8692 16.88 23.6188 16.9333 23.389 17.0393C23.1072 17.1743 22.8694 17.3867 22.7031 17.652C22.5368 17.9172 22.449 18.2243 22.4498 18.5377V19.4649C22.4498 19.7146 22.6148 19.9616 22.9407 20.1547C23.5939 20.5356 24.6541 20.5356 25.3087 20.1547C25.6346 19.9657 25.7996 19.7187 25.7996 19.4649V18.539Z" fill="#104119"/>
<path d="M24.5523 17.3895C24.4192 17.4559 24.2726 17.4904 24.124 17.4904C23.9753 17.4904 23.8287 17.4559 23.6956 17.3895C23.4605 17.2516 23.4605 17.028 23.6956 16.8914C23.8285 16.8241 23.9752 16.7891 24.124 16.7891C24.2728 16.7891 24.4195 16.8241 24.5523 16.8914C24.782 17.028 24.782 17.2529 24.5523 17.3895Z" fill="#092D0E"/>
<path d="M23.6022 16.3125V17.0934C23.6066 17.1396 23.6231 17.1837 23.6498 17.2215C23.6766 17.2593 23.7128 17.2893 23.7548 17.3087C23.8692 17.366 23.9954 17.3959 24.1233 17.3959C24.2513 17.3959 24.3774 17.366 24.4919 17.3087C24.5341 17.2896 24.5704 17.2596 24.5972 17.2218C24.624 17.184 24.6403 17.1397 24.6445 17.0934V16.3125H23.6022Z" fill="#104119"/>
<path d="M24.4919 16.5232C24.3774 16.5805 24.2512 16.6103 24.1233 16.6103C23.9954 16.6103 23.8692 16.5805 23.7548 16.5232C23.554 16.4073 23.554 16.2141 23.7548 16.0968C23.8689 16.0383 23.9952 16.0078 24.1233 16.0078C24.2514 16.0078 24.3778 16.0383 24.4919 16.0968C24.6954 16.2141 24.6954 16.4073 24.4919 16.5232Z" fill="#3A822A"/>
<path d="M23.4784 15.8242V16.4548C23.4834 16.512 23.5034 16.5668 23.5365 16.6136C23.5697 16.6604 23.6146 16.6975 23.6668 16.7211C23.8087 16.7932 23.9656 16.8308 24.1247 16.8308C24.2838 16.8308 24.4406 16.7932 24.5826 16.7211C24.6343 16.6974 24.6788 16.6604 24.7117 16.6139C24.7445 16.5674 24.7646 16.513 24.7696 16.4562V15.8242H23.4784Z" fill="#998841"/>
<path d="M24.5826 16.0913C24.4407 16.1634 24.2839 16.201 24.1247 16.201C23.9656 16.201 23.8088 16.1634 23.6668 16.0913C23.4166 15.9533 23.4166 15.7091 23.6668 15.5629C23.8088 15.4907 23.9656 15.4531 24.1247 15.4531C24.2839 15.4531 24.4407 15.4907 24.5826 15.5629C24.8315 15.7091 24.8315 15.9478 24.5826 16.0913Z" fill="#EBDA7C"/>
<path opacity="0.3" d="M22.8664 17.7021C22.7592 17.84 22.7372 18.0042 22.8142 18.0621C22.8912 18.1201 23.037 18.0497 23.1415 17.909C23.246 17.7683 23.2694 17.6082 23.1951 17.5544C23.1209 17.5006 22.9723 17.5627 22.8664 17.7021Z" fill="white"/>
<path d="M22.6327 28.2722C22.6053 28.3435 22.5578 28.4051 22.496 28.4497C22.4343 28.4943 22.3608 28.5199 22.2848 28.5234H22.1996C22.1189 28.5192 22.0401 28.4973 21.9688 28.4592C21.8975 28.421 21.8355 28.3675 21.7871 28.3026L21.4557 27.7976C21.3745 27.6762 21.4295 27.5755 21.5753 27.5755H22.5819C22.7304 27.5755 22.8706 27.4982 22.828 27.6417L22.6327 28.2722Z" fill="#092D0E"/>
<path d="M19.5566 28.2721C19.5842 28.3432 19.6317 28.4048 19.6935 28.4493C19.7552 28.4939 19.8285 28.5196 19.9045 28.5232H19.9898C20.0705 28.519 20.1493 28.4971 20.2206 28.459C20.2919 28.4208 20.3539 28.3673 20.4023 28.3024L20.7323 27.7974C20.8148 27.676 20.7598 27.5753 20.6141 27.5753H19.6034C19.459 27.5753 19.3118 27.4856 19.3545 27.625L19.5566 28.2721Z" fill="#092D0E"/>
<path d="M21.8792 21.3047H20.3129C20.0136 21.449 19.7609 21.6751 19.5838 21.9569C19.4067 22.2388 19.3125 22.5651 19.3119 22.8983V27.4032C19.3119 27.6695 19.4879 27.9344 19.8344 28.1345C20.0458 28.2515 20.274 28.3349 20.5109 28.3815L20.7282 28.7664C20.7669 28.8321 20.8207 28.8874 20.885 28.928C20.9493 28.9686 21.0224 28.9931 21.0981 28.9996C21.1733 28.9933 21.2459 28.9687 21.3096 28.9281C21.3733 28.8875 21.4262 28.832 21.4639 28.7664L21.6839 28.3815C21.9196 28.3351 22.1465 28.2517 22.3563 28.1345C22.7056 27.9344 22.8789 27.6695 22.8789 27.4032V22.8983C22.8786 22.5652 22.7846 22.239 22.6077 21.9571C22.4309 21.6752 22.1784 21.449 21.8792 21.3047Z" fill="#104119"/>
<path d="M21.0981 22.4154C21.5363 22.424 21.9695 22.32 22.3563 22.1132C22.4425 22.0652 22.5232 22.0078 22.597 21.9422C22.42 21.6681 22.1718 21.4476 21.8792 21.3047H20.3129C20.0213 21.4481 19.7741 21.6684 19.5978 21.9422C19.6709 22.0069 19.7501 22.0642 19.8344 22.1132C20.2231 22.3202 20.6581 22.4242 21.0981 22.4154Z" fill="#092D0E"/>
<path d="M19.3119 25.7695C19.3119 26.0331 19.4879 26.2925 19.8344 26.498C20.5316 26.9037 21.6605 26.9037 22.3563 26.498C22.7056 26.2966 22.8789 26.0331 22.8789 25.7695V25.8606C22.8789 26.1214 22.7056 26.3877 22.3563 26.585C21.6605 26.992 20.5316 26.992 19.8344 26.585C19.4879 26.3863 19.3119 26.1214 19.3119 25.8606V25.7695Z" fill="#092D0E"/>
<path d="M19.3119 25.2383C19.3119 25.5018 19.4879 25.7626 19.8344 25.9627C20.5316 26.3766 21.6605 26.3766 22.3563 25.9627C22.7056 25.764 22.8789 25.5018 22.8789 25.2383V25.3266C22.8789 25.5915 22.7056 25.8564 22.3563 26.0565C21.6605 26.4594 20.5316 26.4594 19.8344 26.0565C19.4879 25.8564 19.3119 25.5915 19.3119 25.3266V25.2383Z" fill="#092D0E"/>
<path d="M19.3119 24.7031C19.3119 24.9667 19.4879 25.2288 19.8344 25.4316C20.5316 25.8331 21.6605 25.8331 22.3563 25.4316C22.7056 25.2302 22.8789 24.9667 22.8789 24.7031V24.7914C22.8789 25.0577 22.7056 25.3226 22.3563 25.5241C21.6605 25.9256 20.5316 25.9256 19.8344 25.5241C19.4879 25.3226 19.3119 25.0577 19.3119 24.7914V24.7031Z" fill="#092D0E"/>
<path d="M19.3119 24.1719C19.3119 24.4382 19.4879 24.7017 19.8344 24.9032C20.5316 25.306 21.6605 25.306 22.3563 24.9032C22.7056 24.7045 22.8789 24.4382 22.8789 24.1719V24.2629C22.8789 24.5292 22.7056 24.7914 22.3563 24.9914C21.6605 25.3957 20.5316 25.3957 19.8344 24.9914C19.4879 24.79 19.3119 24.5292 19.3119 24.2629V24.1719Z" fill="#092D0E"/>
<path d="M19.3119 23.6406C19.3119 23.9028 19.4879 24.1636 19.8344 24.3664C20.5316 24.772 21.6605 24.772 22.3563 24.3664C22.7056 24.1636 22.8789 23.9028 22.8789 23.6406V23.7289C22.8789 23.9952 22.7056 24.2588 22.3563 24.4588C21.6605 24.8617 20.5316 24.8617 19.8344 24.4588C19.4879 24.2574 19.3119 23.9952 19.3119 23.7289V23.6406Z" fill="#092D0E"/>
<path d="M22.7716 20.2927C22.7716 19.98 22.6835 19.6738 22.5173 19.4093C22.3511 19.1449 22.1136 18.9331 21.8324 18.7984C21.6033 18.689 21.3518 18.6351 21.0981 18.6411C20.8442 18.6371 20.5927 18.6909 20.3624 18.7984C20.0807 18.9327 19.8427 19.1443 19.676 19.4088C19.5093 19.6733 19.4207 19.9797 19.4205 20.2927V21.2226C19.4205 21.471 19.5869 21.718 19.9142 21.9125C20.566 22.292 21.6262 22.292 22.2807 21.9125C22.6066 21.7249 22.7716 21.4765 22.7716 21.2226V20.2927Z" fill="#104119"/>
<path d="M21.5244 19.1354C21.392 19.2041 21.2451 19.24 21.0961 19.24C20.947 19.24 20.8002 19.2041 20.6678 19.1354C20.434 18.9974 20.434 18.7766 20.6678 18.6414C20.8006 18.5741 20.9473 18.5391 21.0961 18.5391C21.2449 18.5391 21.3916 18.5741 21.5244 18.6414C21.7568 18.7808 21.7568 19.0057 21.5244 19.1354Z" fill="#092D0E"/>
<path d="M20.5756 18.0625V18.8462C20.5795 18.8925 20.5956 18.9369 20.6225 18.9748C20.6493 19.0126 20.6859 19.0426 20.7282 19.0614C20.8422 19.1193 20.9682 19.1494 21.096 19.1494C21.2238 19.1494 21.3498 19.1193 21.4639 19.0614C21.5066 19.0428 21.5436 19.013 21.5709 18.9752C21.5982 18.9373 21.615 18.8928 21.6192 18.8462V18.0625H20.5756Z" fill="#104119"/>
<path d="M21.4639 18.2721C21.3502 18.3313 21.224 18.3621 21.096 18.3621C20.968 18.3621 20.8419 18.3313 20.7282 18.2721C20.5247 18.159 20.5247 17.9672 20.7282 17.8485C20.8425 17.7914 20.9684 17.7617 21.096 17.7617C21.2237 17.7617 21.3496 17.7914 21.4639 17.8485C21.6674 17.9672 21.6674 18.159 21.4639 18.2721Z" fill="#3A822A"/>
<path d="M20.4504 17.5859V18.2193C20.4557 18.2764 20.4759 18.3311 20.509 18.3778C20.5421 18.4246 20.5869 18.4617 20.6388 18.4855C20.7807 18.557 20.9373 18.5942 21.096 18.5942C21.2548 18.5942 21.4114 18.557 21.5533 18.4855C21.6053 18.4617 21.6501 18.4246 21.6831 18.3778C21.7162 18.3311 21.7364 18.2764 21.7417 18.2193V17.5859H20.4504Z" fill="#998841"/>
<path d="M21.5532 17.8501C21.4114 17.9216 21.2548 17.9588 21.096 17.9588C20.9372 17.9588 20.7807 17.9216 20.6388 17.8501C20.3872 17.7039 20.3872 17.4666 20.6388 17.3176C20.7811 17.2474 20.9375 17.2109 21.096 17.2109C21.2545 17.2109 21.411 17.2474 21.5532 17.3176C21.8049 17.4666 21.8049 17.7039 21.5532 17.8501Z" fill="#EBDA7C"/>
<path opacity="0.3" d="M19.8317 19.4546C19.7271 19.5925 19.7051 19.7553 19.7808 19.8147C19.8564 19.874 20.0021 19.8023 20.108 19.6615C20.2139 19.5208 20.2373 19.3621 20.1617 19.3055C20.086 19.249 19.943 19.3138 19.8317 19.4546Z" fill="white"/>
<path d="M29.8699 24.3776L20.6388 29.7214V28.5224L29.8699 23.1758V24.3776Z" fill="#91773D"/>
<path d="M12.9245 25.2565L20.6388 29.7228V28.5237L12.9245 24.0547V25.2565Z" fill="#CBAB5C"/>
</svg>
