<svg width="178" height="174" viewBox="0 0 178 174" fill="none" xmlns="http://www.w3.org/2000/svg">
<path opacity="0.3" d="M0.339798 98.2089L130.187 173.011L177.421 145.746L47.5753 70.9297L0.339798 98.2089Z" fill="black"/>
<path d="M29.9066 87.7461L20.6415 93.041V98.3988L29.9066 93.1026V87.7461Z" fill="#0D0D0D"/>
<path d="M28.0516 97.112C24.0352 94.7912 20.8031 96.673 20.8031 101.281C20.8031 105.889 24.0352 111.522 28.0516 113.816C32.0385 116.126 35.286 114.257 35.286 109.646C35.286 105.036 32.0411 99.4276 28.0516 97.112Z" fill="#333333"/>
<path d="M34.6431 93.2839C32.6894 92.1697 30.9206 92.0414 29.628 92.7397H29.6177L22.9789 96.5764C24.283 95.855 26.0596 95.9757 28.0543 97.1129C32.0412 99.4234 35.2887 105.023 35.2887 109.647C35.2887 111.845 34.534 113.435 33.3299 114.229L39.9174 110.425C41.1394 109.631 41.8903 108.042 41.8903 105.836C41.8903 101.22 38.6454 95.5957 34.6431 93.2839Z" fill="#474747"/>
<path d="M28.3572 96.9406C26.3959 95.8033 24.6078 95.6852 23.3165 96.3784L22.9789 96.5786C24.283 95.8572 26.0596 95.9779 28.0543 97.1152C32.0412 99.4257 35.2887 105.025 35.2887 109.65C35.2887 111.847 34.534 113.438 33.3299 114.231L33.6046 114.058C33.6046 114.058 35.5762 112.931 35.5762 109.474C35.5762 104.859 32.3518 99.237 28.3572 96.9406Z" fill="#575757"/>
<path d="M30.502 95.7033C28.5471 94.5763 26.7693 94.4556 25.4742 95.1436L25.1199 95.3503C26.442 94.6161 28.2288 94.738 30.1991 95.8637C34.2091 98.1806 37.4528 103.781 37.4528 108.411C37.4528 110.614 36.6968 112.198 35.4696 112.985H35.4953L35.7739 112.827C35.7739 112.827 37.7391 111.684 37.7391 108.224C37.7391 103.618 34.4979 98.0163 30.502 95.7033Z" fill="#2B2B2B"/>
<path d="M32.7202 94.4097C30.7794 93.275 29.0118 93.1518 27.7064 93.8475L27.3586 94.049C28.6511 93.3199 30.4392 93.4316 32.4314 94.5881C36.4285 96.8986 39.662 102.493 39.662 107.121C39.662 109.342 38.929 110.912 37.707 111.7L37.9919 111.524C37.9919 111.524 39.9777 110.394 39.9777 106.934C39.9777 102.33 36.725 96.7074 32.7202 94.4097Z" fill="#2B2B2B"/>
<path d="M35.8585 107.597L36.4284 105.947L35.1037 104.697L35.4298 102.939L33.7996 101.971L33.9665 100.124L32.0809 99.5485L31.8896 97.79L29.9642 97.514L29.5111 96.2484L27.1608 95.9916L26.415 95.3203C26.415 95.3203 24.7117 95.7606 24.2406 95.9223C24.0652 95.9814 23.8962 96.0579 23.7361 96.1508L23.4498 96.2792C23.6886 96.1583 23.9406 96.0657 24.2008 96.0032C24.6051 95.8748 26.1942 95.4371 26.1942 95.4371L26.9516 96.1264L29.2851 96.3703L29.7306 97.6462L31.6637 97.926L31.828 99.6499L33.6956 100.207L33.5557 102.071L35.1808 103.017L34.8316 104.754L36.1742 106L35.6211 107.683L36.585 109.16L35.6865 110.572L36.1319 111.552L34.9253 112.799L34.7521 113.414L34.9625 113.277L35.0485 112.813L36.3232 111.521L35.9034 110.539L36.8392 109.161L35.8585 107.597Z" fill="#333333"/>
<path d="M38.1921 106.249L38.7634 104.609L37.422 103.346L37.7429 101.588L36.114 100.619L36.295 98.7683L34.4093 98.1958L34.2168 96.4437L32.2914 96.1792L31.8357 94.8956L29.4777 94.6389L28.7564 93.9766C28.7564 93.9766 27.026 94.4143 26.5626 94.5927C26.3882 94.6516 26.2168 94.7193 26.0492 94.7955L25.7552 94.9624C25.9963 94.8366 26.2497 94.736 26.5113 94.662C26.9195 94.5337 28.5124 94.1062 28.5124 94.1062L29.2826 94.7852L31.5931 95.042L32.0424 96.2948L33.9871 96.5977L34.1231 98.3126L36.0177 98.8735L35.8688 100.76L37.5054 101.681L37.1576 103.42L38.4925 104.665L37.9534 106.334L38.9045 107.841L37.9919 109.253L38.4399 110.23L37.2256 111.466L37.0587 112.075L37.2962 111.947L37.3681 111.485L38.6363 110.192L38.2101 109.204L39.1612 107.818L38.1921 106.249Z" fill="#333333"/>
<path d="M40.4872 104.92L41.0649 103.273L39.7248 102.021L40.0611 100.249L38.4309 99.2909L38.5965 97.4541L36.7032 96.8778L36.5119 95.1333L34.5942 94.8445L34.1539 93.5802L31.7921 93.3234L31.0643 92.6367C31.0643 92.6367 29.3327 93.0898 28.8603 93.2529C28.6883 93.3138 28.5225 93.3907 28.3649 93.4826V93.4621L28.0774 93.6392C28.3103 93.5006 28.5601 93.3923 28.8206 93.317C29.2455 93.2028 30.8204 92.7664 30.8204 92.7664L31.6021 93.4467L33.9126 93.7034L34.3491 94.9613L36.304 95.2553L36.4555 96.9817L38.3269 97.5465L38.1986 99.4116L39.8172 100.358L39.4796 102.075L40.8197 103.328L40.2639 105.009L41.2215 106.497L40.323 107.909L40.7786 108.887L39.5592 110.132L39.3769 110.737L39.6054 110.609L39.6953 110.143L40.9699 108.851L40.5463 107.869L41.4795 106.496L40.4872 104.92Z" fill="#333333"/>
<path d="M28.0517 99.5322C25.2059 97.9084 22.9095 99.2177 22.9095 102.493C22.9095 105.769 25.2059 109.765 28.0517 111.399C30.8974 113.033 33.1784 111.701 33.1784 108.425C33.1784 105.149 30.882 101.185 28.0517 99.5322Z" fill="#1F1F1F"/>
<path d="M28.0515 100.285C25.5677 98.8631 23.5512 100.012 23.5512 102.876C23.5512 105.739 25.5677 109.21 28.0515 110.649C30.5353 112.088 32.5146 110.912 32.5146 108.056C32.5146 105.2 30.534 101.714 28.0515 100.285Z" fill="#919191"/>
<path d="M26.4601 104.542C26.4601 105.562 27.1776 106.79 28.0543 107.3C28.931 107.809 29.628 107.398 29.628 106.38C29.628 105.363 28.9259 104.141 28.0543 103.634C27.1827 103.127 26.4601 103.548 26.4601 104.542Z" fill="#707070"/>
<path d="M27.6319 105.231C27.6397 105.375 27.6823 105.515 27.7558 105.639C27.8293 105.764 27.9316 105.868 28.0542 105.944C28.2903 106.09 28.4675 105.987 28.4675 105.716C28.4624 105.571 28.4222 105.429 28.3502 105.302C28.2782 105.176 28.1766 105.069 28.0542 104.991C27.8231 104.856 27.6319 104.969 27.6319 105.231Z" fill="#575757"/>
<path d="M28.6229 104.688C28.5919 104.689 28.5615 104.697 28.5343 104.712C28.4136 104.777 28.4136 104.993 28.5343 105.187C28.6549 105.381 28.8398 105.491 28.9566 105.429C29.0118 105.405 29.0118 105.372 29.0285 105.325C28.9566 105.31 28.8895 105.277 28.8324 105.231C28.7753 105.185 28.7299 105.126 28.6999 105.058C28.627 104.95 28.5994 104.816 28.6229 104.688Z" fill="#4F4F4F"/>
<path d="M28.6229 104.688C28.5994 104.816 28.627 104.95 28.6999 105.058C28.7299 105.126 28.7754 105.185 28.8324 105.231C28.8895 105.277 28.9566 105.31 29.0285 105.325C29.0514 105.197 29.0258 105.065 28.9566 104.955C28.9265 104.886 28.8804 104.827 28.8223 104.78C28.7642 104.734 28.6959 104.702 28.6229 104.688Z" fill="#2B2B2B"/>
<path d="M28.6075 106.305C28.5774 106.305 28.5476 106.311 28.519 106.32C28.3906 106.398 28.3906 106.614 28.519 106.814C28.6473 107.015 28.8334 107.124 28.94 107.045C28.9616 107.037 28.98 107.021 28.9928 107.002C29.0056 106.982 29.0123 106.96 29.0119 106.936C28.9079 106.936 28.7821 106.83 28.6833 106.687C28.6111 106.574 28.5841 106.437 28.6075 106.305Z" fill="#4F4F4F"/>
<path d="M28.6075 106.305C28.5834 106.438 28.6104 106.576 28.6833 106.69C28.7821 106.832 28.9079 106.939 29.0119 106.939C29.0363 106.812 29.0105 106.68 28.94 106.572C28.9118 106.503 28.8665 106.442 28.8084 106.395C28.7502 106.348 28.6811 106.317 28.6075 106.305Z" fill="#2B2B2B"/>
<path d="M27.2096 105.48C27.1794 105.481 27.1493 105.484 27.1198 105.491C26.9979 105.564 26.9979 105.782 27.1198 105.989C27.2418 106.195 27.4163 106.292 27.537 106.215C27.5558 106.204 27.5714 106.188 27.5824 106.169C27.5934 106.15 27.5994 106.129 27.5999 106.107C27.5269 106.094 27.4585 106.062 27.4009 106.015C27.3432 105.969 27.2982 105.908 27.27 105.84C27.2066 105.731 27.1851 105.604 27.2096 105.48Z" fill="#4F4F4F"/>
<path d="M27.2096 105.48C27.1851 105.604 27.2065 105.731 27.2699 105.84C27.2982 105.908 27.3432 105.969 27.4008 106.015C27.4584 106.062 27.5268 106.094 27.5998 106.107C27.6241 105.973 27.5982 105.836 27.5271 105.72C27.4561 105.604 27.3448 105.519 27.2147 105.48H27.2096Z" fill="#2B2B2B"/>
<path d="M27.2096 103.855C27.1775 103.855 27.1402 103.855 27.13 103.868C27.0132 103.929 27.0132 104.167 27.13 104.362C27.2468 104.558 27.4162 104.671 27.5446 104.605C27.5645 104.595 27.5813 104.579 27.5933 104.56C27.6052 104.541 27.6119 104.519 27.6126 104.496C27.501 104.496 27.3777 104.392 27.2878 104.23C27.2192 104.118 27.1915 103.986 27.2096 103.855Z" fill="#4F4F4F"/>
<path d="M27.2096 103.855C27.1915 103.986 27.2192 104.118 27.2878 104.23C27.3777 104.392 27.501 104.496 27.6126 104.496C27.6306 104.432 27.6338 104.366 27.622 104.301C27.6102 104.236 27.5837 104.174 27.5446 104.121C27.5151 104.053 27.4691 103.992 27.4106 103.946C27.3521 103.9 27.283 103.869 27.2096 103.855Z" fill="#2B2B2B"/>
<path d="M26.9543 99.811C26.7746 99.7583 26.6231 99.7339 26.4883 99.7031C26.6167 100.649 27.2495 101.686 28.0544 102.142C28.6256 102.476 29.1185 102.415 29.4073 102.041C29.2427 102.078 29.0723 102.082 28.9061 102.053C28.7398 102.024 28.5812 101.961 28.4394 101.87C27.7527 101.457 27.1777 100.648 26.9543 99.811Z" fill="#575757"/>
<path d="M26.9543 99.8086C27.1776 100.647 27.7527 101.454 28.4394 101.862C28.5811 101.954 28.7398 102.016 28.906 102.046C29.0722 102.075 29.2427 102.071 29.4072 102.033C29.5202 101.888 29.5928 101.715 29.6178 101.532C29.1566 101.047 28.6304 100.627 28.0543 100.285C27.7073 100.084 27.3382 99.9242 26.9543 99.8086Z" fill="#2B2B2B"/>
<path d="M29.9489 109.211H29.9066C29.3328 109.446 29.1608 110.275 29.4817 111.201C30.3109 111.357 31.022 111.165 31.5573 110.704C31.0926 110.961 30.5227 111.035 29.8719 110.927C29.628 110.216 29.6716 109.572 29.9489 109.211Z" fill="#575757"/>
<path d="M29.8717 110.927C30.5225 111.035 31.0924 110.962 31.557 110.704C31.6852 110.593 31.8017 110.47 31.9049 110.336C31.3311 109.505 30.5468 109.03 29.9486 109.203C29.6714 109.572 29.6278 110.216 29.8717 110.927Z" fill="#2B2B2B"/>
<path d="M31.3787 104.32C30.8486 104.481 30.6086 105.151 30.8204 106.048C31.0771 107.038 31.7857 107.954 32.5173 108.279V107.766C31.8748 107.262 31.4197 106.557 31.2247 105.764C31.0643 105.151 31.1323 104.636 31.3787 104.32Z" fill="#575757"/>
<path d="M31.3789 104.322C31.135 104.638 31.0644 105.153 31.2249 105.767C31.4199 106.559 31.8749 107.264 32.5175 107.768C32.4764 106.633 32.1131 105.42 31.5573 104.293C31.4968 104.295 31.4368 104.305 31.3789 104.322Z" fill="#2B2B2B"/>
<path d="M24.2008 105.928C24.753 107.302 25.5878 108.544 26.6511 109.574C26.7308 109.413 26.7809 109.239 26.7988 109.06C25.9201 108.139 25.2082 107.071 24.695 105.906C24.5313 105.869 24.3605 105.876 24.2008 105.928Z" fill="#575757"/>
<path d="M24.6976 105.902C25.2109 107.068 25.9227 108.135 26.8014 109.056C26.8682 108.484 26.6731 107.764 26.2315 107.097C25.79 106.431 25.2085 105.99 24.6976 105.902Z" fill="#2B2B2B"/>
<path d="M23.957 102.591C23.957 101.617 24.1855 100.831 24.5988 100.298C24.5796 100.267 24.5563 100.239 24.5295 100.215C23.9237 100.753 23.5476 101.659 23.5476 102.878V103.106C24.1971 103.569 24.8183 103.586 25.1456 103.162C24.8183 103.257 24.3858 103.152 23.9596 102.835C23.9541 102.753 23.9532 102.672 23.957 102.591Z" fill="#575757"/>
<path d="M23.9569 102.588C23.9553 102.669 23.9582 102.751 23.9659 102.832C24.3921 103.149 24.8247 103.254 25.152 103.159C25.2169 103.066 25.2707 102.966 25.3124 102.86C25.5512 102.166 25.2251 101.084 24.6051 100.293C24.1854 100.828 23.9569 101.614 23.9569 102.588Z" fill="#2B2B2B"/>
<path d="M85.8886 70.9402L6.9852 25.2656V80.7444L85.8886 126.418V70.9402Z" fill="#0D1A38"/>
<path d="M129.656 45.6719L85.8885 70.9423V115.801L129.656 90.5288V45.6719Z" fill="#1B2F6D"/>
<path d="M165.023 94.4818L160.583 97.0464L159.801 96.5985L164.253 94.0312L165.023 94.4818Z" fill="#BCBEC0"/>
<path d="M160.583 108.195L159.801 107.747V96.6016L160.583 97.0495V108.195Z" fill="#939598"/>
<path d="M165.023 105.618L160.583 108.195V97.049L165.023 94.4844V105.618Z" fill="#BCBEC2"/>
<path d="M160.583 106.165C160.575 106.022 160.533 105.883 160.46 105.759C160.388 105.635 160.288 105.53 160.167 105.452C160.125 105.425 160.076 105.408 160.026 105.404C159.976 105.399 159.925 105.407 159.878 105.427L158.706 106.103L159.27 107.13L160.464 106.425C160.506 106.397 160.539 106.358 160.56 106.312C160.581 106.266 160.589 106.215 160.583 106.165Z" fill="#939598"/>
<path d="M159.387 106.862C159.387 107.119 159.211 107.228 158.977 107.104C158.857 107.024 158.758 106.915 158.688 106.789C158.618 106.662 158.579 106.52 158.574 106.375C158.574 106.119 158.747 106.015 158.977 106.148C159.098 106.225 159.198 106.331 159.269 106.455C159.341 106.579 159.381 106.719 159.387 106.862Z" fill="#BCBEC2"/>
<path d="M118.196 141.219L108.933 146.516V151.879L118.196 146.586V141.219Z" fill="#0D0D0D"/>
<path d="M116.693 148.408C112.672 146.088 109.44 147.971 109.44 152.578C109.44 157.185 112.672 162.812 116.693 165.104C120.672 167.422 123.931 165.561 123.931 160.934C123.931 156.308 120.673 150.721 116.693 148.408Z" fill="#333333"/>
<path d="M123.279 144.581C121.321 143.46 119.556 143.335 118.26 144.034H118.252L111.615 147.87C112.915 147.153 114.695 147.27 116.693 148.41C120.672 150.72 123.931 156.318 123.931 160.937C123.931 163.148 123.174 164.728 121.967 165.526L128.558 161.722C129.775 160.923 130.532 159.339 130.532 157.13C130.529 152.515 127.285 146.893 123.279 144.581Z" fill="#474747"/>
<path d="M116.989 148.229C115.035 147.098 113.25 146.977 111.954 147.673L111.615 147.868C112.915 147.152 114.695 147.269 116.693 148.408C120.672 150.719 123.931 156.317 123.931 160.935C123.931 163.147 123.174 164.727 121.967 165.524L122.242 165.347C122.242 165.347 124.215 164.216 124.215 160.758C124.215 156.154 120.985 150.524 116.989 148.229Z" fill="#575757"/>
<path d="M119.141 146.992C117.185 145.867 115.409 145.749 114.112 146.442L113.762 146.647C115.076 145.912 116.859 146.025 118.841 147.161C122.841 149.471 126.088 155.075 126.088 159.706C126.088 161.913 125.334 163.492 124.109 164.277H124.127L124.404 164.122C124.404 164.122 126.373 162.985 126.373 159.524C126.376 154.911 123.128 149.313 119.141 146.992Z" fill="#2B2B2B"/>
<path d="M121.353 145.703C119.411 144.567 117.65 144.446 116.338 145.138L115.993 145.341C117.284 144.616 119.081 144.72 121.068 145.871C125.065 148.192 128.295 153.787 128.295 158.411C128.295 160.638 127.566 162.201 126.341 162.995L126.631 162.817C126.631 162.817 128.615 161.685 128.615 158.232C128.615 153.624 125.366 148.001 121.353 145.703Z" fill="#2B2B2B"/>
<path d="M124.499 158.896L125.066 157.239L123.736 155.985L124.062 154.226L122.432 153.258L122.604 151.411L120.721 150.84L120.529 149.083L118.604 148.803L118.147 147.532L115.798 147.296L115.043 146.613C115.043 146.613 113.348 147.052 112.879 147.213C112.705 147.28 112.535 147.359 112.372 147.449L112.083 147.589C112.323 147.464 112.576 147.367 112.838 147.3C113.246 147.172 114.826 146.737 114.826 146.737L115.585 147.428L117.92 147.672L118.368 148.949L120.293 149.22L120.46 150.945L122.322 151.509L122.186 153.373L123.81 154.317L123.46 156.053L124.801 157.302L124.247 158.98L125.221 160.462L124.322 161.881L124.774 162.86L123.565 164.101L123.389 164.717L123.605 164.577L123.691 164.113L124.965 162.829L124.542 161.845L125.475 160.466L124.499 158.896Z" fill="#333333"/>
<path d="M126.825 157.545L127.394 155.895L126.061 154.639L126.379 152.877L124.755 151.91L124.937 150.062L123.051 149.489L122.855 147.73L120.93 147.473L120.478 146.18L118.116 145.923L117.395 145.266C117.395 145.266 115.666 145.701 115.205 145.869C115.037 145.923 114.871 146.01 114.691 146.085L114.396 146.245C114.635 146.119 114.887 146.018 115.147 145.945C115.558 145.825 117.156 145.398 117.156 145.398L117.92 146.077L120.24 146.317L120.683 147.585L122.628 147.878L122.763 149.59L124.657 150.151L124.511 152.043L126.146 152.957L125.797 154.699L127.135 155.947L126.594 157.615L127.548 159.113L126.63 160.525L127.077 161.511L125.869 162.742L125.699 163.356L125.929 163.236L126.01 162.773L127.281 161.478L126.85 160.484L127.802 159.105L126.825 157.545Z" fill="#333333"/>
<path d="M129.13 156.214L129.699 154.563L128.361 153.313L128.696 151.534L127.064 150.58L127.231 148.743L125.342 148.163L125.145 146.42L123.235 146.131L122.791 144.867L120.437 144.61L119.701 143.926C119.701 143.926 117.968 144.374 117.499 144.534C117.327 144.598 117.161 144.677 117.003 144.77V144.75L116.718 144.928C116.949 144.791 117.197 144.684 117.455 144.61C117.88 144.496 119.454 144.055 119.454 144.055L120.244 144.736L122.545 144.992L122.98 146.247L124.937 146.535L125.086 148.272L126.955 148.836L126.827 150.711L128.443 151.642L128.106 153.365L129.447 154.612L128.893 156.295L129.848 157.782L128.95 159.194L129.402 160.169L128.185 161.42L128.001 162.022L128.23 161.894L128.326 161.434L129.594 160.14L129.171 159.161L130.105 157.784L129.13 156.214Z" fill="#333333"/>
<path d="M116.692 150.836C113.843 149.205 111.546 150.523 111.546 153.796C111.546 157.069 113.843 161.069 116.692 162.701C119.516 164.329 121.817 163.003 121.817 159.725C121.817 156.447 119.521 152.471 116.692 150.836Z" fill="#1F1F1F"/>
<path d="M116.693 151.58C114.21 150.154 112.192 151.307 112.192 154.17C112.192 157.034 114.21 160.507 116.693 161.944C119.175 163.38 121.156 162.201 121.156 159.348C121.156 156.496 119.17 153.016 116.693 151.58Z" fill="#919191"/>
<path d="M115.097 155.841C115.097 156.868 115.809 158.086 116.693 158.592C117.576 159.098 118.26 158.691 118.26 157.678C118.26 156.665 117.559 155.433 116.693 154.926C115.826 154.419 115.097 154.841 115.097 155.841Z" fill="#707070"/>
<path d="M116.266 156.519C116.274 156.665 116.316 156.807 116.39 156.932C116.465 157.058 116.568 157.164 116.693 157.24C116.929 157.38 117.112 157.277 117.112 157.012C117.107 156.866 117.066 156.724 116.992 156.598C116.919 156.472 116.816 156.366 116.693 156.289C116.459 156.154 116.266 156.261 116.266 156.519Z" fill="#575757"/>
<path d="M117.262 155.981C117.232 155.98 117.201 155.988 117.175 156.005C117.053 156.065 117.053 156.289 117.175 156.484C117.297 156.679 117.478 156.79 117.588 156.725C117.655 156.702 117.655 156.661 117.673 156.627C117.564 156.627 117.431 156.511 117.338 156.348C117.267 156.239 117.24 156.108 117.262 155.981Z" fill="#4F4F4F"/>
<path d="M117.263 155.98C117.241 156.108 117.268 156.239 117.338 156.348C117.431 156.511 117.564 156.627 117.673 156.627C117.695 156.495 117.665 156.36 117.589 156.25C117.562 156.181 117.518 156.12 117.461 156.072C117.404 156.025 117.335 155.993 117.263 155.98Z" fill="#2B2B2B"/>
<path d="M117.246 157.598C117.216 157.596 117.187 157.602 117.16 157.615C117.031 157.693 117.031 157.901 117.16 158.108C117.288 158.314 117.468 158.412 117.574 158.332C117.596 158.326 117.615 158.313 117.628 158.295C117.642 158.277 117.65 158.256 117.65 158.233C117.547 158.233 117.414 158.122 117.318 157.977C117.244 157.865 117.219 157.729 117.246 157.598Z" fill="#4F4F4F"/>
<path d="M117.246 157.598C117.219 157.728 117.245 157.864 117.317 157.975C117.414 158.121 117.547 158.232 117.65 158.232C117.674 158.102 117.647 157.967 117.574 157.857C117.547 157.789 117.502 157.729 117.444 157.684C117.387 157.638 117.318 157.609 117.246 157.598Z" fill="#2B2B2B"/>
<path d="M115.841 156.77C115.811 156.77 115.782 156.777 115.754 156.79C115.632 156.863 115.632 157.074 115.754 157.277C115.876 157.479 116.057 157.583 116.174 157.51C116.208 157.485 116.231 157.448 116.238 157.406C116.165 157.393 116.096 157.361 116.038 157.314C115.981 157.266 115.936 157.205 115.909 157.135C115.84 157.027 115.815 156.896 115.841 156.77Z" fill="#4F4F4F"/>
<path d="M115.841 156.771C115.815 156.897 115.84 157.028 115.91 157.137C115.936 157.206 115.981 157.268 116.038 157.315C116.096 157.362 116.165 157.394 116.238 157.407C116.263 157.27 116.236 157.129 116.163 157.01C116.09 156.892 115.975 156.805 115.841 156.766V156.771Z" fill="#2B2B2B"/>
<path d="M115.842 155.152C115.81 155.152 115.775 155.152 115.767 155.169C115.652 155.225 115.652 155.458 115.767 155.659C115.883 155.861 116.057 155.957 116.179 155.897C116.2 155.889 116.218 155.875 116.23 155.857C116.242 155.838 116.247 155.816 116.246 155.794C116.139 155.794 116.014 155.682 115.923 155.521C115.853 155.411 115.824 155.281 115.842 155.152Z" fill="#4F4F4F"/>
<path d="M115.842 155.152C115.824 155.281 115.853 155.411 115.922 155.521C116.013 155.682 116.139 155.794 116.246 155.794C116.266 155.729 116.27 155.661 116.259 155.594C116.247 155.527 116.22 155.463 116.179 155.409C116.148 155.342 116.101 155.284 116.042 155.239C115.983 155.194 115.914 155.165 115.842 155.152Z" fill="#2B2B2B"/>
<path d="M115.594 151.101C115.42 151.05 115.268 151.028 115.127 151C115.255 151.945 115.886 152.983 116.698 153.439C117.268 153.773 117.763 153.71 118.045 153.326C117.777 153.408 117.446 153.372 117.079 153.156C116.391 152.761 115.809 151.945 115.594 151.101Z" fill="#575757"/>
<path d="M115.594 151.102C115.815 151.945 116.396 152.759 117.079 153.155C117.446 153.371 117.777 153.412 118.045 153.325C118.164 153.185 118.238 153.013 118.257 152.831C117.798 152.345 117.273 151.925 116.698 151.584C116.35 151.381 115.979 151.219 115.594 151.102Z" fill="#2B2B2B"/>
<path d="M118.579 160.512H118.538C117.968 160.745 117.798 161.575 118.115 162.494C118.945 162.654 119.663 162.465 120.197 161.996C119.731 162.261 119.156 162.333 118.506 162.22C118.26 161.514 118.312 160.867 118.579 160.512Z" fill="#575757"/>
<path d="M118.506 162.218C119.156 162.331 119.731 162.26 120.197 161.994C120.326 161.89 120.441 161.77 120.537 161.634C119.968 160.805 119.184 160.325 118.579 160.501C118.312 160.866 118.26 161.512 118.506 162.218Z" fill="#2B2B2B"/>
<path d="M120.011 155.613C119.484 155.781 119.248 156.437 119.453 157.341C119.71 158.331 120.419 159.254 121.156 159.572V159.058C120.513 158.555 120.056 157.852 119.859 157.06C119.701 156.437 119.772 155.93 120.011 155.613Z" fill="#575757"/>
<path d="M120.011 155.612C119.772 155.929 119.701 156.436 119.859 157.061C120.056 157.853 120.513 158.556 121.156 159.059C121.113 157.926 120.75 156.714 120.197 155.582C120.134 155.582 120.071 155.592 120.011 155.612Z" fill="#2B2B2B"/>
<path d="M112.842 157.223C113.393 158.596 114.227 159.837 115.289 160.865C115.37 160.702 115.422 160.526 115.441 160.345C114.562 159.424 113.85 158.356 113.336 157.191C113.171 157.157 113 157.168 112.842 157.223Z" fill="#575757"/>
<path d="M113.336 157.191C113.85 158.357 114.562 159.424 115.441 160.345C115.504 159.787 115.305 159.054 114.87 158.392C114.435 157.729 113.843 157.286 113.336 157.191Z" fill="#2B2B2B"/>
<path d="M112.593 153.886C112.593 152.908 112.825 152.124 113.242 151.599C113.23 151.563 113.205 151.532 113.173 151.512C112.566 152.05 112.192 152.956 112.192 154.174V154.397C112.842 154.866 113.455 154.875 113.789 154.454C113.455 154.541 113.029 154.442 112.598 154.125C112.593 154.047 112.593 153.976 112.593 153.886Z" fill="#575757"/>
<path d="M112.593 153.885C112.593 153.975 112.593 154.047 112.593 154.124C113.024 154.441 113.45 154.54 113.784 154.452C113.852 154.36 113.906 154.259 113.947 154.152C114.18 153.458 113.857 152.379 113.237 151.598C112.825 152.12 112.593 152.907 112.593 153.885Z" fill="#2B2B2B"/>
<path d="M164.762 112.059L122.088 136.69L131.511 164.918L174.188 140.28V128.232C174.188 125.137 172.699 121.439 170.323 118.636L164.762 112.059Z" fill="#1E3C98"/>
<path d="M139.384 149.347L134.591 152.112C133.916 152.497 133.372 152.189 133.372 151.413V151.388C133.372 150.609 133.916 149.659 134.591 149.273L139.383 146.511C140.057 146.114 140.601 146.432 140.601 147.213V147.236C140.602 148.013 140.058 148.966 139.384 149.347Z" fill="#D1C699"/>
<path d="M139.384 152.93L134.591 155.704C133.916 156.089 133.372 155.777 133.372 154.993V154.963C133.372 154.193 133.916 153.243 134.591 152.857L139.383 150.091C140.057 149.697 140.601 150.018 140.601 150.793V150.821C140.602 151.605 140.058 152.544 139.384 152.93Z" fill="#91773D"/>
<path d="M171.31 130.914L166.521 133.686C165.844 134.071 165.301 133.754 165.301 132.988V132.951C165.301 132.17 165.844 131.228 166.521 130.835L171.31 128.075C171.981 127.681 172.531 128 172.531 128.779V128.808C172.531 129.584 171.981 130.527 171.31 130.914Z" fill="#D1C699"/>
<path d="M171.31 134.506L166.521 137.267C165.844 137.652 165.301 137.339 165.301 136.56V136.529C165.301 135.759 165.844 134.811 166.521 134.425L171.31 131.663C171.981 131.267 172.531 131.584 172.531 132.361V132.389C172.531 133.171 171.981 134.112 171.31 134.506Z" fill="#91773D"/>
<path d="M147.669 73.753C147.669 73.753 145.123 67.5917 139.922 64.5945L129.653 57.4062L85.8821 82.6728L122.08 136.691L164.755 112.06L147.669 73.753Z" fill="#1E3C98"/>
<path d="M85.8885 82.6758L97.2445 89.2363C102.45 92.2374 104.994 98.3897 104.994 98.3897L122.088 136.694L127.656 143.279C130.029 146.086 131.516 149.78 131.516 152.878V164.922L125.026 161.175C125.026 156.04 121.42 149.801 116.979 147.236C112.537 144.671 108.934 146.756 108.934 151.883L85.8834 138.682L85.8885 82.6758Z" fill="#0D1A38"/>
<path opacity="0.3" d="M94.1663 118.204L89.2642 115.373C88.3298 114.833 87.5686 113.513 87.5686 112.441V102.142C87.5686 101.062 88.3298 100.619 89.2642 101.161L94.1663 103.993C95.1008 104.534 95.8582 105.847 95.8582 106.927V117.215C95.8582 118.3 95.1008 118.745 94.1663 118.204Z" fill="#0D0D0D"/>
<path d="M108.563 111.259C108.432 110.961 108.218 110.706 107.946 110.526L98.917 105.312C98.8837 105.292 98.8465 105.279 98.8079 105.273V118.623C98.8079 119.293 99.2777 120.115 99.854 120.45L117.149 130.406L108.563 111.259Z" fill="#0F2034"/>
<path d="M116.564 131.503L98.917 121.323C98.3368 120.98 97.867 120.168 97.867 119.494V105.922C97.867 105.28 98.2778 105.008 98.8079 105.272V118.621C98.8079 119.291 99.2777 120.113 99.854 120.448L117.149 130.405L117.178 130.505C117.531 131.279 117.17 131.864 116.564 131.503Z" fill="#1E3C98"/>
<path d="M36.1794 107.368C35.2641 102.868 32.1386 98.1259 28.4135 95.9797C24.6885 93.8335 21.5565 94.9528 20.6413 98.4006L9.7473 92.1109V82.3555L85.8884 126.428L85.8781 136.19L36.1794 107.368Z" fill="#0F2034"/>
<path opacity="0.3" d="M108.085 147.788L96.9815 141.376C96.359 141.021 95.8571 140.151 95.8571 139.443V121.57L96.7248 122.07V139.931C96.7288 140.02 96.7542 140.106 96.7989 140.183C96.8436 140.26 96.9063 140.325 96.9815 140.373L108.083 146.784C108.193 146.852 108.29 146.82 108.325 146.721C108.829 145.22 111.254 140.863 118.722 146.282C118.748 146.308 118.78 146.325 118.815 146.334C118.85 146.342 118.887 146.34 118.921 146.329C118.954 146.312 119.006 146.275 119.006 146.159V134.926L119.87 135.432V146.661C119.87 147.036 119.734 147.303 119.492 147.411C119.251 147.518 118.927 147.441 118.608 147.21C111.805 142.266 109.598 146.159 109.149 147.506C109.001 147.964 108.57 148.063 108.085 147.788Z" fill="#0D0D0D"/>
<path opacity="0.3" d="M101.455 128.99L99.9581 128.121C99.8265 128.036 99.717 127.921 99.6382 127.786C99.5595 127.65 99.5138 127.498 99.505 127.342V127.329C99.505 127.044 99.7052 126.931 99.9581 127.072L101.455 127.941C101.586 128.025 101.695 128.139 101.774 128.272C101.853 128.406 101.899 128.557 101.909 128.712V128.723C101.909 129.013 101.705 129.142 101.455 128.99Z" fill="#0D0D0D"/>
<path d="M162.13 109.165L121.813 132.456L121.251 131.19L160.772 108.371L151.133 87.0167L151.934 86.5508L162.13 109.165Z" fill="#1B2F6D"/>
<path d="M160.772 108.374L121.251 131.192L111.618 109.845L151.133 87.0195L160.772 108.374Z" fill="#1D374E"/>
<path d="M150.034 88.0028C149.991 87.9144 149.942 87.8287 149.888 87.7461L140.279 93.2913V95.3605C140.279 96.0369 140.747 96.8623 141.328 97.1922L158.614 107.156L150.034 88.0028Z" fill="#2A4E68"/>
<path d="M141.867 145.403L145.513 149.313L161.914 139.833L163.764 132.766L141.867 145.403Z" fill="#B0B0B0"/>
<path d="M152.288 140.039V144.885L145.694 148.728L145.291 148.263L151.69 144.533V140.374L152.288 140.039Z" fill="#828282"/>
<path d="M151.69 140.371V144.53L145.291 148.26L142.859 145.477L151.69 140.371Z" fill="#2B2B2B"/>
<path d="M163.013 133.836L161.511 139.562L153.584 144.129V143.451L160.919 139.219L162.213 134.295L163.013 133.836Z" fill="#828282"/>
<path d="M162.213 134.297L160.919 139.221L153.584 143.453V139.286L162.213 134.297Z" fill="#2B2B2B"/>
<path d="M131.16 167.359L125.168 163.901V157.316L131.16 160.774V167.359Z" fill="#939598"/>
<path d="M177.407 140.672L131.16 167.36V160.775L177.407 134.086V140.672Z" fill="#BCBEC2"/>
<path d="M125.168 157.313L131.16 160.771L177.407 134.082L174.193 132.211V134.212L131.514 158.81L127.047 156.231L125.168 157.313Z" fill="#BCBEC0"/>
<path d="M132.4 146.48C132.988 147.8 172.265 124.402 172.265 124.402C172.265 124.402 131.826 145.169 132.4 146.48Z" fill="#1B2F6D"/>
<path d="M13.968 95.8057L6.22656 91.3375V84.75L13.968 89.2208V95.8057Z" fill="#939598"/>
<path d="M6.22656 84.7519L13.968 89.2227L15.8395 88.1381L9.74751 84.6133L9.74494 82.7148L6.22656 84.7519Z" fill="#BCBEC0"/>
<path d="M15.8419 94.7228L13.9678 95.8062V89.2213L15.8419 88.1328V94.7228Z" fill="#BCBEC2"/>
<path d="M159.252 105.008L156.194 106.777L153.048 103.789L137.958 112.498V117.312L119.735 127.828L121.25 131.19L160.771 108.372L159.252 105.008Z" fill="#0F2034"/>
<path d="M115.91 132.306C115.905 132.162 115.865 132.022 115.794 131.898C115.723 131.773 115.622 131.668 115.501 131.591C115.458 131.56 115.407 131.542 115.355 131.539C115.302 131.537 115.249 131.55 115.204 131.577L114.039 132.248L114.595 133.26L115.798 132.57C115.837 132.539 115.867 132.498 115.887 132.452C115.906 132.406 115.914 132.356 115.91 132.306Z" fill="#939598"/>
<path d="M114.757 123.457L110.305 126.029L109.526 125.589L113.977 123L114.757 123.457Z" fill="#BCBEC0"/>
<path d="M110.305 137.172L109.526 136.725V125.59L110.305 126.03V137.172Z" fill="#939598"/>
<path d="M114.757 134.591L110.305 137.171V126.029L114.757 123.457V134.591Z" fill="#BCBEC2"/>
<path d="M85.8886 70.9399L6.9852 25.2653L50.7511 0L129.656 45.6695L85.8886 70.9399Z" fill="#1E3C98"/>
<path d="M22.898 61.2328C23.8273 61.7861 26.8297 63.7487 27.3264 64.0453C28.3251 64.6396 29.3224 64.8757 29.7255 64.5587C28.714 65.9052 28.0491 66.1978 25.9157 64.9271C25.1455 64.465 22.3499 62.6294 21.4668 62.1031C20.3937 61.4613 19.463 61.3689 19.1331 61.6256C20.0727 60.3189 20.8224 59.9967 22.898 61.2328ZM17.3117 63.7641C17.6403 63.5074 18.5722 63.6024 19.644 64.2417C20.5271 64.7679 23.3177 66.6022 24.093 67.0656C26.2264 68.3376 26.8913 68.045 27.904 66.6972C27.4997 67.0104 26.5023 66.7755 25.5037 66.1837C25.0069 65.8872 22.0046 63.9233 21.0765 63.3701C18.9997 62.1301 18.25 62.4536 17.3117 63.7641ZM15.489 65.8988C15.8176 65.6421 16.7495 65.737 17.8226 66.3763C18.7044 66.9026 21.495 68.7368 22.2703 69.2002C24.4049 70.471 25.0698 70.1783 26.0813 68.8318C25.6782 69.145 24.6796 68.9101 23.681 68.3184C23.1842 68.0231 20.1831 66.0592 19.2538 65.506C17.1782 64.2647 16.4286 64.5869 15.489 65.8988Z" fill="url(#paint0_linear_2401_3455)"/>
<path d="M38.766 78.9454L41.3408 80.4857C41.0572 79.9723 41.011 79.5564 40.984 78.9056L40.7003 71.2451C40.2806 71.2168 39.7337 71.0192 39.2203 70.7137L35.9279 76.0008C35.7687 76.2486 35.5749 76.5297 34.9151 76.658L36.793 77.7774C36.3643 77.1266 36.2963 76.7992 36.5543 76.2781L37.1268 75.3577L39.1806 76.5772L39.1998 77.9134C39.2049 78.7041 39.1523 78.862 38.766 78.9454ZM37.422 74.8725L39.0599 72.2437L39.1074 72.2719L39.16 75.9084L37.422 74.8725ZM70.1617 97.6463C69.733 96.9968 69.665 96.6682 69.923 96.1471L70.4955 95.2267L72.5492 96.4461L72.5685 97.7824C72.5788 98.5795 72.5261 98.7374 72.1398 98.8208L74.7146 100.355C74.431 99.8413 74.3848 99.4254 74.3578 98.7746L74.0742 91.114C73.6544 91.0871 73.1076 90.8881 72.5941 90.5826L69.3017 95.8698C69.1503 96.1429 68.9006 96.348 68.6034 96.4436C68.3184 95.6939 67.8666 93.9906 67.2582 90.5159L68.8512 89.7213C69.8537 89.2207 70.6328 89.2939 70.6328 89.2939L68.14 87.8113C68.3595 88.6033 68.3749 88.7098 68.3659 88.8729C68.3595 88.9825 68.3214 89.0879 68.2562 89.1763C68.1911 89.2647 68.1017 89.3323 67.9988 89.3709L65.6883 90.4825C65.9126 92.1862 66.2305 93.8763 66.6408 95.545L70.1617 97.6463ZM70.7958 94.7428L72.4337 92.114L72.4812 92.1435L72.5338 95.7787L70.7958 94.7428ZM44.5576 73.7609L48.8513 76.3192C48.8513 76.3192 48.3378 76.4077 48.1504 77.1702L46.8411 82.406C46.6267 83.2609 46.9759 83.8321 46.9759 83.8321L44.3971 82.2918C44.3971 82.2918 44.9106 82.2122 45.1159 81.3753L46.5626 75.5914L45.3881 74.8918C45.3071 75.3516 45.186 75.8035 45.0261 76.2422C43.3639 80.9915 43.0725 81.5807 42.2458 81.0878C41.6233 80.7181 41.4757 79.9261 41.5154 79.2201C41.645 79.4038 41.8089 79.5607 41.9981 79.6822C42.5885 80.0339 43.0724 80.1648 44.4985 75.9302C44.7594 75.2326 44.7802 74.4679 44.5576 73.7571V73.7609ZM31.2607 67.0618L29.9386 72.3451C29.6626 73.2732 29.1761 73.2359 29.1761 73.2359L32.4211 75.1691C34.376 76.332 34.9216 76.2832 35.2925 74.6556C35.5659 73.4606 35.1385 71.8727 33.3812 70.8266L32.3979 70.2413L33.068 67.5637L34.2233 68.2517C34.8432 68.6214 34.9318 68.7433 35.0653 69.2054C35.1706 69.57 35.6198 71.1539 35.6198 71.1539L36.1936 68.7857L31.09 65.7461C31.3075 66.1485 31.3683 66.6172 31.2607 67.0618ZM31.6355 73.2899L32.2439 70.86L32.7792 71.1783C33.6777 71.7123 33.9434 72.3336 33.6546 73.5889C33.3773 74.7968 33.0744 74.956 32.2567 74.4695C31.6188 74.0883 31.5174 73.7764 31.6381 73.2899H31.6355ZM64.5241 92.9457C64.3098 93.8006 64.6525 94.3718 64.6525 94.3718L62.0737 92.8315C62.0737 92.8315 62.5871 92.7519 62.7925 91.9137L64.1056 86.6612C64.2287 86.2102 64.1726 85.7291 63.9491 85.3186L66.5278 86.8589C66.5278 86.8589 66.0144 86.9474 65.827 87.7099L64.5241 92.9457ZM60.8581 90.7636C60.6438 91.6185 60.9929 92.1897 60.9929 92.1897L58.4141 90.6494C58.4141 90.6494 58.9212 90.5698 59.133 89.7316L60.2163 85.3968L56.4438 89.48L54.4349 88.285C54.4349 88.285 54.9484 88.2054 55.1538 87.3672L56.4669 82.1147C56.5897 81.6632 56.5336 81.1818 56.3103 80.7707L58.8891 82.311C58.8891 82.311 58.3756 82.3996 58.1882 83.1621L57.0586 87.6765L60.9095 83.5138L62.8683 84.6806C62.8683 84.6806 62.3548 84.7692 62.1674 85.5316L60.8581 90.7636ZM54.9831 82.691L54.4439 80.8041C54.3156 80.2791 54.1872 80.1456 53.5865 79.7888L53.2694 79.6001L51.8292 85.3866C51.7343 85.7717 51.688 86.1773 51.9832 86.8242L49.375 85.2698C49.864 85.1234 49.9859 84.8654 50.1143 84.3712L51.5558 78.5847L51.2503 78.4025C50.6509 78.0443 50.5135 78.0174 50.1772 78.2484L48.9295 79.0905L49.588 76.7723L55.5568 80.3279L54.9831 82.691Z" fill="white"/>
<defs>
<linearGradient id="paint0_linear_2401_3455" x1="20.2471" y1="61.4656" x2="28.6157" y2="68.5503" gradientUnits="userSpaceOnUse">
<stop stop-color="#8B6228"/>
<stop offset="0.25" stop-color="#D6B160"/>
<stop offset="0.5" stop-color="#F6EECD"/>
<stop offset="0.75" stop-color="#D6B160"/>
<stop offset="1" stop-color="#8B6228"/>
</linearGradient>
</defs>
</svg>
