<svg width="320" height="568" viewBox="0 0 320 568" fill="none" xmlns="http://www.w3.org/2000/svg">
<rect width="320" height="568" fill="#3D63A4"/>
<path d="M58.292 113.609H54.917V103.054H49.9336V113.609H46.5586V100.522H58.292V113.609ZM76.5472 107.07C76.5472 109.156 75.9495 110.814 74.7542 112.045C73.5589 113.27 71.9065 113.882 69.7972 113.882C67.6936 113.882 66.0442 113.27 64.8489 112.045C63.6536 110.814 63.056 109.156 63.056 107.07C63.056 104.967 63.6536 103.306 64.8489 102.087C66.0442 100.862 67.6936 100.25 69.7972 100.25C71.8948 100.25 73.5442 100.862 74.7454 102.087C75.9466 103.306 76.5472 104.967 76.5472 107.07ZM72.0735 110.384C72.4017 109.985 72.6448 109.517 72.803 108.978C72.9612 108.433 73.0403 107.794 73.0403 107.062C73.0403 106.276 72.9495 105.608 72.7679 105.058C72.5862 104.507 72.3489 104.062 72.056 103.722C71.7571 103.37 71.4114 103.115 71.0188 102.957C70.6321 102.799 70.2278 102.72 69.806 102.72C69.3782 102.72 68.9739 102.796 68.5931 102.948C68.2181 103.101 67.8724 103.353 67.556 103.704C67.263 104.032 67.0228 104.486 66.8353 105.066C66.6536 105.641 66.5628 106.309 66.5628 107.07C66.5628 107.85 66.6507 108.515 66.8265 109.065C67.0081 109.61 67.2454 110.056 67.5384 110.401C67.8313 110.747 68.1741 111.002 68.5667 111.166C68.9593 111.33 69.3724 111.412 69.806 111.412C70.2395 111.412 70.6526 111.33 71.0452 111.166C71.4378 110.996 71.7806 110.735 72.0735 110.384ZM92.5084 109.602C92.5084 110.234 92.3795 110.8 92.1217 111.298C91.8697 111.796 91.5211 112.209 91.0758 112.537C90.5602 112.924 89.9918 113.199 89.3707 113.363C88.7555 113.527 87.9733 113.609 87.024 113.609H81.3111V100.522H86.3912C87.4459 100.522 88.2164 100.558 88.7028 100.628C89.1949 100.698 89.6813 100.854 90.1617 101.094C90.6598 101.346 91.0289 101.686 91.2692 102.113C91.5153 102.535 91.6383 103.019 91.6383 103.563C91.6383 104.196 91.4713 104.756 91.1373 105.242C90.8033 105.723 90.3317 106.098 89.7223 106.367V106.438C90.5778 106.607 91.2545 106.959 91.7526 107.492C92.2565 108.025 92.5084 108.729 92.5084 109.602ZM88.1842 104.223C88.1842 104.006 88.1285 103.789 88.0172 103.572C87.9117 103.355 87.7213 103.194 87.4459 103.089C87.1998 102.995 86.8922 102.945 86.5231 102.939C86.1598 102.928 85.6471 102.922 84.985 102.922H84.6686V105.69H85.1959C85.7291 105.69 86.1832 105.682 86.5582 105.664C86.9332 105.646 87.2291 105.588 87.4459 105.488C87.7506 105.354 87.9498 105.181 88.0436 104.97C88.1373 104.753 88.1842 104.504 88.1842 104.223ZM89.0104 109.549C89.0104 109.133 88.9283 108.813 88.7643 108.591C88.6061 108.362 88.3336 108.192 87.9469 108.081C87.6832 108.005 87.3199 107.964 86.857 107.958C86.3942 107.952 85.9108 107.949 85.4069 107.949H84.6686V111.21H84.9147C85.8639 111.21 86.5436 111.207 86.9537 111.201C87.3639 111.195 87.7418 111.119 88.0875 110.973C88.4391 110.826 88.6793 110.633 88.8082 110.393C88.943 110.146 89.0104 109.865 89.0104 109.549ZM106.668 113.609H97.2021V100.522H106.668V103.054H100.56V105.312H106.228V107.844H100.56V111.078H106.668V113.609ZM122.489 104.653C122.489 105.239 122.386 105.813 122.181 106.376C121.976 106.933 121.683 107.401 121.302 107.782C120.781 108.298 120.198 108.688 119.553 108.951C118.914 109.215 118.117 109.347 117.162 109.347H115.062V113.609H111.687V100.522H117.241C118.073 100.522 118.774 100.596 119.342 100.742C119.916 100.883 120.423 101.097 120.863 101.384C121.39 101.729 121.791 102.172 122.067 102.711C122.348 103.25 122.489 103.897 122.489 104.653ZM118.999 104.732C118.999 104.363 118.9 104.047 118.7 103.783C118.501 103.514 118.27 103.326 118.006 103.221C117.655 103.08 117.312 103.004 116.978 102.992C116.644 102.975 116.198 102.966 115.642 102.966H115.062V106.886H116.029C116.603 106.886 117.074 106.851 117.444 106.78C117.819 106.71 118.132 106.569 118.384 106.358C118.601 106.171 118.756 105.948 118.85 105.69C118.949 105.427 118.999 105.107 118.999 104.732ZM138.801 113.609H135.426V107.844H130.443V113.609H127.068V100.522H130.443V105.312H135.426V100.522H138.801V113.609ZM156.266 113.609H152.978V104.899L147.547 113.609H144.33V100.522H147.617V108.406L152.671 100.522H156.266V113.609ZM171.972 103.054H167.885V113.609H164.51V103.054H160.423V100.522H171.972V103.054ZM185.648 113.609H176.182V100.522H185.648V103.054H179.54V105.312H185.209V107.844H179.54V111.078H185.648V113.609ZM207.955 102.034C208.541 102.603 208.989 103.291 209.3 104.1C209.616 104.908 209.775 105.834 209.775 106.877C209.775 107.996 209.602 109.004 209.256 109.9C208.91 110.791 208.436 111.521 207.832 112.089C207.229 112.657 206.502 113.097 205.653 113.407C204.809 113.712 203.865 113.864 202.822 113.864C202.266 113.864 201.747 113.826 201.267 113.75C200.792 113.68 200.364 113.592 199.984 113.486C199.579 113.375 199.213 113.261 198.885 113.144C198.557 113.021 198.308 112.924 198.138 112.854V109.892H198.463C198.639 110.038 198.853 110.202 199.105 110.384C199.357 110.56 199.632 110.721 199.931 110.867C200.288 111.037 200.669 111.181 201.073 111.298C201.478 111.409 201.958 111.465 202.515 111.465C202.907 111.465 203.326 111.412 203.772 111.307C204.217 111.195 204.615 111.011 204.967 110.753C205.336 110.489 205.653 110.138 205.916 109.698C206.186 109.259 206.356 108.699 206.426 108.02H200.599V105.523H206.347C206.253 104.996 206.086 104.554 205.846 104.196C205.606 103.839 205.319 103.546 204.985 103.317C204.651 103.089 204.284 102.925 203.886 102.825C203.493 102.72 203.101 102.667 202.708 102.667C202.222 102.667 201.771 102.726 201.355 102.843C200.945 102.954 200.558 103.098 200.195 103.273C199.866 103.438 199.573 103.613 199.316 103.801C199.064 103.988 198.853 104.146 198.683 104.275H198.314V101.287C198.636 101.146 198.938 101.026 199.219 100.927C199.5 100.821 199.863 100.71 200.309 100.593C200.666 100.499 201.088 100.423 201.574 100.364C202.061 100.3 202.559 100.268 203.069 100.268C204.076 100.268 204.993 100.417 205.82 100.716C206.646 101.015 207.358 101.454 207.955 102.034ZM226.747 113.609H222.607L218.74 108.327H217.914V113.609H214.539V100.522H217.914V105.857C218.189 105.846 218.417 105.819 218.599 105.778C218.781 105.731 218.948 105.652 219.1 105.541C219.258 105.424 219.428 105.251 219.61 105.022C219.792 104.788 219.982 104.501 220.181 104.161C220.304 103.95 220.442 103.701 220.594 103.414C220.752 103.121 220.884 102.881 220.99 102.693C221.441 101.902 221.916 101.34 222.414 101.006C222.912 100.666 223.665 100.496 224.672 100.496C224.971 100.496 225.238 100.502 225.472 100.514C225.707 100.52 225.879 100.522 225.991 100.522V103.361H225.015C224.535 103.361 224.16 103.484 223.89 103.73C223.626 103.977 223.333 104.41 223.011 105.031C222.689 105.646 222.425 106.08 222.22 106.332C222.015 106.578 221.816 106.754 221.623 106.859L226.747 113.609ZM241.407 104.653C241.407 105.239 241.305 105.813 241.099 106.376C240.894 106.933 240.601 107.401 240.221 107.782C239.699 108.298 239.116 108.688 238.471 108.951C237.833 109.215 237.036 109.347 236.081 109.347H233.98V113.609H230.605V100.522H236.16C236.992 100.522 237.692 100.596 238.261 100.742C238.835 100.883 239.342 101.097 239.781 101.384C240.308 101.729 240.71 102.172 240.985 102.711C241.266 103.25 241.407 103.897 241.407 104.653ZM237.918 104.732C237.918 104.363 237.818 104.047 237.619 103.783C237.42 103.514 237.188 103.326 236.925 103.221C236.573 103.08 236.23 103.004 235.896 102.992C235.562 102.975 235.117 102.966 234.56 102.966H233.98V106.886H234.947C235.521 106.886 235.993 106.851 236.362 106.78C236.737 106.71 237.051 106.569 237.303 106.358C237.519 106.171 237.675 105.948 237.768 105.69C237.868 105.427 237.918 105.107 237.918 104.732ZM258.08 113.609H254.591L253.686 110.964H248.834L247.929 113.609H244.527L249.361 100.522H253.246L258.08 113.609ZM252.868 108.564L251.26 103.871L249.651 108.564H252.868ZM273.874 113.609H270.499V107.844H265.516V113.609H262.141V100.522H265.516V105.312H270.499V100.522H273.874V113.609ZM107.696 133.054H103.609V143.609H100.234V133.054H96.1476V130.522H107.696V133.054ZM121.372 143.609H111.907V130.522H121.372V133.054H115.264V135.312H120.933V137.844H115.264V141.078H121.372V143.609ZM138.265 143.609H134.89V133.054H131.146C131.117 133.628 131.093 134.079 131.076 134.407C131.058 134.735 131.032 135.169 130.997 135.708C130.921 136.892 130.803 137.888 130.645 138.696C130.493 139.499 130.32 140.161 130.127 140.683C129.927 141.21 129.717 141.641 129.494 141.975C129.271 142.309 129.049 142.581 128.826 142.792C128.539 143.067 128.181 143.287 127.754 143.451C127.326 143.615 126.872 143.697 126.391 143.697C126.098 143.697 125.794 143.686 125.477 143.662C125.167 143.639 124.968 143.621 124.88 143.609V140.683H125.003C125.055 140.688 125.114 140.694 125.178 140.7C125.249 140.706 125.328 140.709 125.416 140.709C125.744 140.709 125.987 140.688 126.145 140.647C126.303 140.606 126.444 140.533 126.567 140.428C127.012 140.035 127.317 139.414 127.481 138.564C127.651 137.709 127.777 136.514 127.859 134.979C127.894 134.369 127.921 133.707 127.938 132.992C127.962 132.271 127.982 131.448 128 130.522H138.265V143.609ZM153.26 143.609H143.794V130.522H153.26V133.054H147.151V135.312H152.82V137.844H147.151V141.078H153.26V143.609ZM171.322 133.177C171.837 133.61 172.233 134.146 172.508 134.785C172.789 135.418 172.93 136.145 172.93 136.965C172.93 137.773 172.787 138.497 172.499 139.136C172.212 139.774 171.799 140.319 171.26 140.771C170.709 141.222 170.074 141.573 169.353 141.825C168.638 142.077 167.806 142.235 166.857 142.3V143.732H163.499V142.3C162.579 142.235 161.747 142.077 161.003 141.825C160.259 141.567 159.62 141.213 159.087 140.762C158.554 140.311 158.144 139.769 157.857 139.136C157.57 138.503 157.426 137.779 157.426 136.965C157.426 136.145 157.564 135.427 157.839 134.812C158.115 134.196 158.513 133.666 159.035 133.221C159.544 132.793 160.183 132.453 160.951 132.201C161.718 131.943 162.568 131.779 163.499 131.709V130.373H166.857V131.709C167.824 131.762 168.676 131.911 169.414 132.157C170.159 132.397 170.794 132.737 171.322 133.177ZM169.441 136.912C169.441 136.068 169.218 135.383 168.773 134.855C168.328 134.328 167.689 134.009 166.857 133.897V140.12C167.824 139.95 168.495 139.607 168.87 139.092C169.25 138.57 169.441 137.844 169.441 136.912ZM163.499 140.12V133.897C162.644 134.026 161.999 134.343 161.566 134.847C161.132 135.345 160.915 136.033 160.915 136.912C160.915 137.832 161.109 138.556 161.495 139.083C161.888 139.604 162.556 139.95 163.499 140.12ZM190.324 137.07C190.324 139.156 189.726 140.814 188.531 142.045C187.336 143.27 185.683 143.882 183.574 143.882C181.47 143.882 179.821 143.27 178.626 142.045C177.43 140.814 176.833 139.156 176.833 137.07C176.833 134.967 177.43 133.306 178.626 132.087C179.821 130.862 181.47 130.25 183.574 130.25C185.672 130.25 187.321 130.862 188.522 132.087C189.723 133.306 190.324 134.967 190.324 137.07ZM185.85 140.384C186.178 139.985 186.422 139.517 186.58 138.978C186.738 138.433 186.817 137.794 186.817 137.062C186.817 136.276 186.726 135.608 186.545 135.058C186.363 134.507 186.126 134.062 185.833 133.722C185.534 133.37 185.188 133.115 184.796 132.957C184.409 132.799 184.005 132.72 183.583 132.72C183.155 132.72 182.751 132.796 182.37 132.948C181.995 133.101 181.649 133.353 181.333 133.704C181.04 134.032 180.8 134.486 180.612 135.066C180.43 135.641 180.34 136.309 180.34 137.07C180.34 137.85 180.427 138.515 180.603 139.065C180.785 139.61 181.022 140.056 181.315 140.401C181.608 140.747 181.951 141.002 182.343 141.166C182.736 141.33 183.149 141.412 183.583 141.412C184.016 141.412 184.429 141.33 184.822 141.166C185.215 140.996 185.557 140.735 185.85 140.384ZM206.821 143.609H203.446V137.844H198.463V143.609H195.088V130.522H198.463V135.312H203.446V130.522H206.821V143.609ZM224.444 143.609H220.954L220.049 140.964H215.198L214.292 143.609H210.891L215.725 130.522H219.61L224.444 143.609ZM219.232 138.564L217.623 133.871L216.015 138.564H219.232Z" fill="white"/>
<path fill-rule="evenodd" clip-rule="evenodd" d="M65 193C58.9249 193 54 197.925 54 204L54 343C54 349.075 58.9249 354 65 354L135 354C141.075 354 146 349.075 146 343L146 204C146 197.925 141.075 193 135 193L65 193ZM58 343C58 346.866 61.134 350 65 350L135 350C138.866 350 142 346.866 142 343L142 204C142 200.134 138.866 197 135 197L65 197C61.134 197 58 200.134 58 204L58 343Z" fill="#6E8CBF"/>
<rect x="83" y="193" width="34" height="11" rx="3" fill="#6E8CBF"/>
<rect x="99" y="265" width="90" height="86" fill="#3D63A4"/>
<path fill-rule="evenodd" clip-rule="evenodd" d="M248 273C248 266.925 243.075 262 237 262L98 262C91.9249 262 87 266.925 87 273L87 343C87 349.075 91.9249 354 98 354L237 354C243.075 354 248 349.075 248 343V273ZM98 266C94.134 266 91 269.134 91 273V343C91 346.866 94.134 350 98 350H237C240.866 350 244 346.866 244 343V273C244 269.134 240.866 266 237 266H98Z" fill="white"/>
<rect x="248" y="291" width="34" height="11" rx="3" transform="rotate(90 248 291)" fill="white"/>
<path d="M197 252L201.559 241.391L190.092 242.748L197 252ZM159 215C176.435 215 191.055 227.06 194.97 243.294L196.914 242.825C192.788 225.714 177.38 213 159 213V215Z" fill="white"/>
<path d="M90.2676 407.57H89.2422V405.982H84.3203V407.57H83.2949V405.062H84.0039C84.4609 404.309 84.8008 403.439 85.0234 402.455C85.25 401.467 85.3633 400.467 85.3633 399.455H89.4766V405.062H90.2676V407.57ZM88.375 405.062V400.381H86.4004C86.3496 401.361 86.1992 402.256 85.9492 403.064C85.6992 403.873 85.4121 404.539 85.0879 405.062H88.375ZM96.877 406H95.7812V405.303C95.6836 405.369 95.5508 405.463 95.3828 405.584C95.2188 405.701 95.0586 405.795 94.9023 405.865C94.7188 405.955 94.5078 406.029 94.2695 406.088C94.0312 406.15 93.752 406.182 93.4316 406.182C92.8418 406.182 92.3418 405.986 91.9316 405.596C91.5215 405.205 91.3164 404.707 91.3164 404.102C91.3164 403.605 91.4219 403.205 91.6328 402.9C91.8477 402.592 92.1523 402.35 92.5469 402.174C92.9453 401.998 93.4238 401.879 93.9824 401.816C94.541 401.754 95.1406 401.707 95.7812 401.676V401.506C95.7812 401.256 95.7363 401.049 95.6465 400.885C95.5605 400.721 95.4355 400.592 95.2715 400.498C95.1152 400.408 94.9277 400.348 94.709 400.316C94.4902 400.285 94.2617 400.27 94.0234 400.27C93.7344 400.27 93.4121 400.309 93.0566 400.387C92.7012 400.461 92.334 400.57 91.9551 400.715H91.8965V399.596C92.1113 399.537 92.4219 399.473 92.8281 399.402C93.2344 399.332 93.6348 399.297 94.0293 399.297C94.4902 399.297 94.8906 399.336 95.2305 399.414C95.5742 399.488 95.8711 399.617 96.1211 399.801C96.3672 399.98 96.5547 400.213 96.6836 400.498C96.8125 400.783 96.877 401.137 96.877 401.559V406ZM95.7812 404.389V402.566C95.4453 402.586 95.0488 402.615 94.5918 402.654C94.1387 402.693 93.7793 402.75 93.5137 402.824C93.1973 402.914 92.9414 403.055 92.7461 403.246C92.5508 403.434 92.4531 403.693 92.4531 404.025C92.4531 404.4 92.5664 404.684 92.793 404.875C93.0195 405.062 93.3652 405.156 93.8301 405.156C94.2168 405.156 94.5703 405.082 94.8906 404.934C95.2109 404.781 95.5078 404.6 95.7812 404.389ZM104.477 406H103.375V403.053H100.1V406H98.998V399.455H100.1V402.104H103.375V399.455H104.477V406ZM112.129 406H111.027V403.053H107.752V406H106.65V399.455H107.752V402.104H111.027V399.455H112.129V406ZM118.334 403.99C118.334 403.791 118.299 403.617 118.229 403.469C118.162 403.316 118.051 403.193 117.895 403.1C117.73 403.002 117.543 402.943 117.332 402.924C117.125 402.904 116.826 402.895 116.436 402.895H115.404V405.121H116.412C116.803 405.121 117.105 405.105 117.32 405.074C117.535 405.039 117.721 404.975 117.877 404.881C118.037 404.779 118.152 404.66 118.223 404.523C118.297 404.383 118.334 404.205 118.334 403.99ZM119.471 403.973C119.471 404.289 119.406 404.576 119.277 404.834C119.152 405.092 118.98 405.301 118.762 405.461C118.504 405.656 118.229 405.795 117.936 405.877C117.643 405.959 117.266 406 116.805 406H114.303V399.455H115.404V402.004H116.834C117.326 402.004 117.707 402.029 117.977 402.08C118.25 402.131 118.521 402.256 118.791 402.455C119.018 402.623 119.188 402.838 119.301 403.1C119.414 403.361 119.471 403.652 119.471 403.973ZM120.566 399.455H121.668V406H120.566V399.455ZM129.355 406H128.266V401.084L124.838 406H123.842V399.455H124.932V404.301L128.324 399.455H129.355V406ZM128.729 396.877C128.709 397.455 128.525 397.906 128.178 398.23C127.834 398.555 127.332 398.717 126.672 398.717C126.012 398.717 125.508 398.555 125.16 398.23C124.816 397.906 124.635 397.455 124.615 396.877H125.617C125.621 397.287 125.711 397.584 125.887 397.768C126.066 397.951 126.328 398.043 126.672 398.043C127.02 398.043 127.281 397.953 127.457 397.773C127.633 397.594 127.723 397.295 127.727 396.877H128.729ZM140.646 405.59C140.197 405.801 139.811 405.945 139.486 406.023C139.166 406.105 138.846 406.146 138.525 406.146C138.049 406.146 137.611 406.078 137.213 405.941C136.814 405.801 136.473 405.59 136.188 405.309C135.902 405.027 135.68 404.672 135.52 404.242C135.363 403.812 135.285 403.311 135.285 402.736C135.285 401.693 135.574 400.861 136.152 400.24C136.73 399.615 137.521 399.303 138.525 399.303C138.904 399.303 139.275 399.355 139.639 399.461C140.006 399.566 140.342 399.695 140.646 399.848V401.072H140.582C140.219 400.795 139.859 400.59 139.504 400.457C139.152 400.324 138.811 400.258 138.479 400.258C137.826 400.258 137.32 400.477 136.961 400.914C136.605 401.352 136.428 401.959 136.428 402.736C136.428 403.514 136.605 404.117 136.961 404.547C137.316 404.977 137.822 405.191 138.479 405.191C138.709 405.191 138.938 405.162 139.164 405.104C139.395 405.045 139.604 404.969 139.791 404.875C139.939 404.801 140.092 404.713 140.248 404.611C140.408 404.506 140.52 404.428 140.582 404.377H140.646V405.59ZM147.637 402.842H142.814C142.814 403.244 142.875 403.596 142.996 403.896C143.117 404.193 143.283 404.438 143.494 404.629C143.697 404.816 143.938 404.957 144.215 405.051C144.496 405.145 144.805 405.191 145.141 405.191C145.586 405.191 146.033 405.104 146.482 404.928C146.936 404.748 147.258 404.572 147.449 404.4H147.508V405.602C147.137 405.758 146.758 405.889 146.371 405.994C145.984 406.1 145.578 406.152 145.152 406.152C144.066 406.152 143.219 405.859 142.609 405.273C142 404.684 141.695 403.848 141.695 402.766C141.695 401.695 141.986 400.846 142.568 400.217C143.154 399.588 143.924 399.273 144.877 399.273C145.76 399.273 146.439 399.531 146.916 400.047C147.396 400.562 147.637 401.295 147.637 402.244V402.842ZM146.564 401.998C146.561 401.42 146.414 400.973 146.125 400.656C145.84 400.34 145.404 400.182 144.818 400.182C144.229 400.182 143.758 400.355 143.406 400.703C143.059 401.051 142.861 401.482 142.814 401.998H146.564ZM155.066 402.648C155.066 403.18 154.99 403.666 154.838 404.107C154.686 404.545 154.471 404.916 154.193 405.221C153.936 405.51 153.631 405.734 153.279 405.895C152.932 406.051 152.562 406.129 152.172 406.129C151.832 406.129 151.523 406.092 151.246 406.018C150.973 405.943 150.693 405.828 150.408 405.672V408.414H149.307V399.455H150.408V400.141C150.701 399.895 151.029 399.689 151.393 399.525C151.76 399.357 152.15 399.273 152.564 399.273C153.354 399.273 153.967 399.572 154.404 400.17C154.846 400.764 155.066 401.59 155.066 402.648ZM153.93 402.678C153.93 401.889 153.795 401.299 153.525 400.908C153.256 400.518 152.842 400.322 152.283 400.322C151.967 400.322 151.648 400.391 151.328 400.527C151.008 400.664 150.701 400.844 150.408 401.066V404.775C150.721 404.916 150.988 405.012 151.211 405.062C151.438 405.113 151.693 405.139 151.979 405.139C152.592 405.139 153.07 404.932 153.414 404.518C153.758 404.104 153.93 403.49 153.93 402.678ZM162.186 404.02C162.186 404.336 162.121 404.617 161.992 404.863C161.867 405.109 161.693 405.314 161.471 405.479C161.221 405.662 160.947 405.795 160.65 405.877C160.357 405.959 159.971 406 159.49 406H156.783V399.455H159.314C159.803 399.455 160.17 399.473 160.416 399.508C160.666 399.539 160.9 399.611 161.119 399.725C161.365 399.854 161.545 400.021 161.658 400.229C161.775 400.436 161.834 400.68 161.834 400.961C161.834 401.285 161.742 401.566 161.559 401.805C161.375 402.043 161.139 402.229 160.85 402.361V402.42C161.236 402.514 161.555 402.695 161.805 402.965C162.059 403.23 162.186 403.582 162.186 404.02ZM160.703 401.131C160.703 400.99 160.672 400.863 160.609 400.75C160.551 400.637 160.459 400.549 160.334 400.486C160.17 400.404 159.984 400.359 159.777 400.352C159.574 400.34 159.322 400.334 159.021 400.334H157.873V402.127H159.25C159.539 402.127 159.752 402.117 159.889 402.098C160.029 402.074 160.17 402.02 160.311 401.934C160.459 401.84 160.561 401.73 160.615 401.605C160.674 401.477 160.703 401.318 160.703 401.131ZM161.049 404.025C161.049 403.811 161.014 403.637 160.943 403.504C160.873 403.367 160.719 403.242 160.48 403.129C160.332 403.059 160.172 403.018 160 403.006C159.828 402.99 159.59 402.982 159.285 402.982H157.873V405.121H158.916C159.354 405.121 159.689 405.107 159.924 405.08C160.162 405.049 160.367 404.984 160.539 404.887C160.711 404.789 160.838 404.67 160.92 404.529C161.006 404.389 161.049 404.221 161.049 404.025ZM169.434 406H168.344V401.084L164.916 406H163.92V399.455H165.01V404.301L168.402 399.455H169.434V406ZM176.506 405.59C176.057 405.801 175.67 405.945 175.346 406.023C175.025 406.105 174.705 406.146 174.385 406.146C173.908 406.146 173.471 406.078 173.072 405.941C172.674 405.801 172.332 405.59 172.047 405.309C171.762 405.027 171.539 404.672 171.379 404.242C171.223 403.812 171.145 403.311 171.145 402.736C171.145 401.693 171.434 400.861 172.012 400.24C172.59 399.615 173.381 399.303 174.385 399.303C174.764 399.303 175.135 399.355 175.498 399.461C175.865 399.566 176.201 399.695 176.506 399.848V401.072H176.441C176.078 400.795 175.719 400.59 175.363 400.457C175.012 400.324 174.67 400.258 174.338 400.258C173.686 400.258 173.18 400.477 172.82 400.914C172.465 401.352 172.287 401.959 172.287 402.736C172.287 403.514 172.465 404.117 172.82 404.547C173.176 404.977 173.682 405.191 174.338 405.191C174.568 405.191 174.797 405.162 175.023 405.104C175.254 405.045 175.463 404.969 175.65 404.875C175.799 404.801 175.951 404.713 176.107 404.611C176.268 404.506 176.379 404.428 176.441 404.377H176.506V405.59ZM187.996 402.648C187.996 403.18 187.92 403.666 187.768 404.107C187.615 404.545 187.4 404.916 187.123 405.221C186.865 405.51 186.561 405.734 186.209 405.895C185.861 406.051 185.492 406.129 185.102 406.129C184.762 406.129 184.453 406.092 184.176 406.018C183.902 405.943 183.623 405.828 183.338 405.672V408.414H182.236V399.455H183.338V400.141C183.631 399.895 183.959 399.689 184.322 399.525C184.689 399.357 185.08 399.273 185.494 399.273C186.283 399.273 186.896 399.572 187.334 400.17C187.775 400.764 187.996 401.59 187.996 402.648ZM186.859 402.678C186.859 401.889 186.725 401.299 186.455 400.908C186.186 400.518 185.771 400.322 185.213 400.322C184.896 400.322 184.578 400.391 184.258 400.527C183.938 400.664 183.631 400.844 183.338 401.066V404.775C183.65 404.916 183.918 405.012 184.141 405.062C184.367 405.113 184.623 405.139 184.908 405.139C185.521 405.139 186 404.932 186.344 404.518C186.688 404.104 186.859 403.49 186.859 402.678ZM194.799 406H193.703V405.303C193.605 405.369 193.473 405.463 193.305 405.584C193.141 405.701 192.98 405.795 192.824 405.865C192.641 405.955 192.43 406.029 192.191 406.088C191.953 406.15 191.674 406.182 191.354 406.182C190.764 406.182 190.264 405.986 189.854 405.596C189.443 405.205 189.238 404.707 189.238 404.102C189.238 403.605 189.344 403.205 189.555 402.9C189.77 402.592 190.074 402.35 190.469 402.174C190.867 401.998 191.346 401.879 191.904 401.816C192.463 401.754 193.062 401.707 193.703 401.676V401.506C193.703 401.256 193.658 401.049 193.568 400.885C193.482 400.721 193.357 400.592 193.193 400.498C193.037 400.408 192.85 400.348 192.631 400.316C192.412 400.285 192.184 400.27 191.945 400.27C191.656 400.27 191.334 400.309 190.979 400.387C190.623 400.461 190.256 400.57 189.877 400.715H189.818V399.596C190.033 399.537 190.344 399.473 190.75 399.402C191.156 399.332 191.557 399.297 191.951 399.297C192.412 399.297 192.812 399.336 193.152 399.414C193.496 399.488 193.793 399.617 194.043 399.801C194.289 399.98 194.477 400.213 194.605 400.498C194.734 400.783 194.799 401.137 194.799 401.559V406ZM193.703 404.389V402.566C193.367 402.586 192.971 402.615 192.514 402.654C192.061 402.693 191.701 402.75 191.436 402.824C191.119 402.914 190.863 403.055 190.668 403.246C190.473 403.434 190.375 403.693 190.375 404.025C190.375 404.4 190.488 404.684 190.715 404.875C190.941 405.062 191.287 405.156 191.752 405.156C192.139 405.156 192.492 405.082 192.812 404.934C193.133 404.781 193.43 404.6 193.703 404.389ZM201.73 400.422C202.004 400.695 202.211 401.027 202.352 401.418C202.492 401.805 202.562 402.26 202.562 402.783C202.562 403.76 202.27 404.57 201.684 405.215C201.098 405.859 200.377 406.182 199.521 406.182C199.1 406.182 198.711 406.111 198.355 405.971C198 405.826 197.697 405.605 197.447 405.309C197.135 404.938 196.9 404.471 196.744 403.908C196.592 403.342 196.516 402.652 196.516 401.84C196.516 401.547 196.529 401.25 196.557 400.949C196.584 400.645 196.646 400.281 196.744 399.859C196.822 399.496 196.936 399.146 197.084 398.811C197.236 398.475 197.416 398.203 197.623 397.996C197.904 397.711 198.273 397.482 198.73 397.311C199.191 397.135 199.801 397.014 200.559 396.947C200.867 396.92 201.154 396.898 201.42 396.883C201.686 396.863 201.924 396.846 202.135 396.83V397.844C201.877 397.859 201.621 397.875 201.367 397.891C201.117 397.906 200.867 397.926 200.617 397.949C200.117 397.992 199.664 398.074 199.258 398.195C198.855 398.316 198.561 398.473 198.373 398.664C198.166 398.871 198.01 399.143 197.904 399.479C197.803 399.811 197.736 400.127 197.705 400.428C197.998 400.217 198.318 400.041 198.666 399.9C199.018 399.756 199.391 399.684 199.785 399.684C200.152 399.684 200.506 399.744 200.846 399.865C201.186 399.986 201.48 400.172 201.73 400.422ZM201.443 402.848C201.443 402.125 201.27 401.586 200.922 401.23C200.574 400.871 200.115 400.691 199.545 400.691C199.205 400.691 198.879 400.746 198.566 400.855C198.254 400.961 197.957 401.104 197.676 401.283C197.668 401.381 197.66 401.496 197.652 401.629C197.648 401.758 197.646 401.877 197.646 401.986C197.646 402.666 197.703 403.217 197.816 403.639C197.93 404.061 198.09 404.396 198.297 404.646C198.477 404.857 198.672 405.008 198.883 405.098C199.094 405.184 199.32 405.227 199.562 405.227C200.152 405.227 200.613 405.014 200.945 404.588C201.277 404.162 201.443 403.582 201.443 402.848ZM209.869 402.73C209.869 403.797 209.596 404.639 209.049 405.256C208.502 405.873 207.77 406.182 206.852 406.182C205.926 406.182 205.189 405.873 204.643 405.256C204.1 404.639 203.828 403.797 203.828 402.73C203.828 401.664 204.1 400.822 204.643 400.205C205.189 399.584 205.926 399.273 206.852 399.273C207.77 399.273 208.502 399.584 209.049 400.205C209.596 400.822 209.869 401.664 209.869 402.73ZM208.732 402.73C208.732 401.883 208.566 401.254 208.234 400.844C207.902 400.43 207.441 400.223 206.852 400.223C206.254 400.223 205.789 400.43 205.457 400.844C205.129 401.254 204.965 401.883 204.965 402.73C204.965 403.551 205.131 404.174 205.463 404.6C205.795 405.021 206.258 405.232 206.852 405.232C207.438 405.232 207.896 405.023 208.229 404.605C208.564 404.184 208.732 403.559 208.732 402.73ZM216.391 400.422H214.023V406H212.922V400.422H210.555V399.455H216.391V400.422ZM222.619 406H221.523V405.303C221.426 405.369 221.293 405.463 221.125 405.584C220.961 405.701 220.801 405.795 220.645 405.865C220.461 405.955 220.25 406.029 220.012 406.088C219.773 406.15 219.494 406.182 219.174 406.182C218.584 406.182 218.084 405.986 217.674 405.596C217.264 405.205 217.059 404.707 217.059 404.102C217.059 403.605 217.164 403.205 217.375 402.9C217.59 402.592 217.895 402.35 218.289 402.174C218.688 401.998 219.166 401.879 219.725 401.816C220.283 401.754 220.883 401.707 221.523 401.676V401.506C221.523 401.256 221.479 401.049 221.389 400.885C221.303 400.721 221.178 400.592 221.014 400.498C220.857 400.408 220.67 400.348 220.451 400.316C220.232 400.285 220.004 400.27 219.766 400.27C219.477 400.27 219.154 400.309 218.799 400.387C218.443 400.461 218.076 400.57 217.697 400.715H217.639V399.596C217.854 399.537 218.164 399.473 218.57 399.402C218.977 399.332 219.377 399.297 219.771 399.297C220.232 399.297 220.633 399.336 220.973 399.414C221.316 399.488 221.613 399.617 221.863 399.801C222.109 399.98 222.297 400.213 222.426 400.498C222.555 400.783 222.619 401.137 222.619 401.559V406ZM221.523 404.389V402.566C221.188 402.586 220.791 402.615 220.334 402.654C219.881 402.693 219.521 402.75 219.256 402.824C218.939 402.914 218.684 403.055 218.488 403.246C218.293 403.434 218.195 403.693 218.195 404.025C218.195 404.4 218.309 404.684 218.535 404.875C218.762 405.062 219.107 405.156 219.572 405.156C219.959 405.156 220.312 405.082 220.633 404.934C220.953 404.781 221.25 404.6 221.523 404.389ZM230.219 402.842H225.396C225.396 403.244 225.457 403.596 225.578 403.896C225.699 404.193 225.865 404.438 226.076 404.629C226.279 404.816 226.52 404.957 226.797 405.051C227.078 405.145 227.387 405.191 227.723 405.191C228.168 405.191 228.615 405.104 229.064 404.928C229.518 404.748 229.84 404.572 230.031 404.4H230.09V405.602C229.719 405.758 229.34 405.889 228.953 405.994C228.566 406.1 228.16 406.152 227.734 406.152C226.648 406.152 225.801 405.859 225.191 405.273C224.582 404.684 224.277 403.848 224.277 402.766C224.277 401.695 224.568 400.846 225.15 400.217C225.736 399.588 226.506 399.273 227.459 399.273C228.342 399.273 229.021 399.531 229.498 400.047C229.979 400.562 230.219 401.295 230.219 402.244V402.842ZM229.146 401.998C229.143 401.42 228.996 400.973 228.707 400.656C228.422 400.34 227.986 400.182 227.4 400.182C226.811 400.182 226.34 400.355 225.988 400.703C225.641 401.051 225.443 401.482 225.396 401.998H229.146ZM236.699 400.422H234.332V406H233.23V400.422H230.863V399.455H236.699V400.422ZM102.988 425H101.887V419.404H98.6113V425H97.5098V418.455H102.988V425ZM110.922 421.648C110.922 422.18 110.846 422.666 110.693 423.107C110.541 423.545 110.326 423.916 110.049 424.221C109.791 424.51 109.486 424.734 109.135 424.895C108.787 425.051 108.418 425.129 108.027 425.129C107.688 425.129 107.379 425.092 107.102 425.018C106.828 424.943 106.549 424.828 106.264 424.672V427.414H105.162V418.455H106.264V419.141C106.557 418.895 106.885 418.689 107.248 418.525C107.615 418.357 108.006 418.273 108.42 418.273C109.209 418.273 109.822 418.572 110.26 419.17C110.701 419.764 110.922 420.59 110.922 421.648ZM109.785 421.678C109.785 420.889 109.65 420.299 109.381 419.908C109.111 419.518 108.697 419.322 108.139 419.322C107.822 419.322 107.504 419.391 107.184 419.527C106.863 419.664 106.557 419.844 106.264 420.066V423.775C106.576 423.916 106.844 424.012 107.066 424.062C107.293 424.113 107.549 424.139 107.834 424.139C108.447 424.139 108.926 423.932 109.27 423.518C109.613 423.104 109.785 422.49 109.785 421.678ZM118.152 425H117.062V420.084L113.635 425H112.639V418.455H113.729V423.301L117.121 418.455H118.152V425ZM129.057 419.422H125.646V425H124.545V418.455H129.057V419.422ZM135.783 421.73C135.783 422.797 135.51 423.639 134.963 424.256C134.416 424.873 133.684 425.182 132.766 425.182C131.84 425.182 131.104 424.873 130.557 424.256C130.014 423.639 129.742 422.797 129.742 421.73C129.742 420.664 130.014 419.822 130.557 419.205C131.104 418.584 131.84 418.273 132.766 418.273C133.684 418.273 134.416 418.584 134.963 419.205C135.51 419.822 135.783 420.664 135.783 421.73ZM134.646 421.73C134.646 420.883 134.48 420.254 134.148 419.844C133.816 419.43 133.355 419.223 132.766 419.223C132.168 419.223 131.703 419.43 131.371 419.844C131.043 420.254 130.879 420.883 130.879 421.73C130.879 422.551 131.045 423.174 131.377 423.6C131.709 424.021 132.172 424.232 132.766 424.232C133.352 424.232 133.811 424.023 134.143 423.605C134.479 423.184 134.646 422.559 134.646 421.73ZM143.254 421.648C143.254 422.18 143.178 422.666 143.025 423.107C142.873 423.545 142.658 423.916 142.381 424.221C142.123 424.51 141.818 424.734 141.467 424.895C141.119 425.051 140.75 425.129 140.359 425.129C140.02 425.129 139.711 425.092 139.434 425.018C139.16 424.943 138.881 424.828 138.596 424.672V427.414H137.494V418.455H138.596V419.141C138.889 418.895 139.217 418.689 139.58 418.525C139.947 418.357 140.338 418.273 140.752 418.273C141.541 418.273 142.154 418.572 142.592 419.17C143.033 419.764 143.254 420.59 143.254 421.648ZM142.117 421.678C142.117 420.889 141.982 420.299 141.713 419.908C141.443 419.518 141.029 419.322 140.471 419.322C140.154 419.322 139.836 419.391 139.516 419.527C139.195 419.664 138.889 419.844 138.596 420.066V423.775C138.908 423.916 139.176 424.012 139.398 424.062C139.625 424.113 139.881 424.139 140.166 424.139C140.779 424.139 141.258 423.932 141.602 423.518C141.945 423.104 142.117 422.49 142.117 421.678ZM150.484 425H149.395V420.084L145.967 425H144.971V418.455H146.061V423.301L149.453 418.455H150.484V425ZM157.211 423.166C157.211 423.533 157.125 423.844 156.953 424.098C156.785 424.352 156.568 424.557 156.303 424.713C156.037 424.865 155.744 424.977 155.424 425.047C155.104 425.117 154.783 425.152 154.463 425.152C154.01 425.152 153.578 425.109 153.168 425.023C152.758 424.938 152.354 424.805 151.955 424.625V423.418H152.031C152.316 423.668 152.68 423.861 153.121 423.998C153.562 424.135 153.99 424.203 154.404 424.203C154.6 424.203 154.801 424.186 155.008 424.15C155.215 424.111 155.395 424.051 155.547 423.969C155.711 423.875 155.842 423.764 155.939 423.635C156.037 423.502 156.086 423.322 156.086 423.096C156.086 422.861 156.037 422.674 155.939 422.533C155.846 422.393 155.717 422.287 155.553 422.217C155.393 422.146 155.199 422.104 154.973 422.088C154.746 422.072 154.539 422.064 154.352 422.064H153.396V421.115H154.059C154.215 421.115 154.418 421.109 154.668 421.098C154.922 421.086 155.127 421.055 155.283 421.004C155.486 420.938 155.646 420.844 155.764 420.723C155.885 420.602 155.945 420.408 155.945 420.143C155.945 419.959 155.898 419.809 155.805 419.691C155.711 419.57 155.594 419.477 155.453 419.41C155.309 419.344 155.146 419.299 154.967 419.275C154.791 419.252 154.635 419.24 154.498 419.24C154.1 419.24 153.707 419.295 153.32 419.404C152.938 419.51 152.615 419.664 152.354 419.867H152.277V418.654C152.602 418.549 152.949 418.463 153.32 418.396C153.691 418.33 154.062 418.297 154.434 418.297C154.738 418.297 155.041 418.324 155.342 418.379C155.646 418.434 155.93 418.527 156.191 418.66C156.449 418.793 156.66 418.975 156.824 419.205C156.988 419.432 157.07 419.713 157.07 420.049C157.07 420.393 156.963 420.695 156.748 420.957C156.537 421.215 156.252 421.4 155.893 421.514V421.555C156.295 421.652 156.615 421.836 156.854 422.105C157.092 422.371 157.211 422.725 157.211 423.166ZM164.529 421.73C164.529 422.797 164.256 423.639 163.709 424.256C163.162 424.873 162.43 425.182 161.512 425.182C160.586 425.182 159.85 424.873 159.303 424.256C158.76 423.639 158.488 422.797 158.488 421.73C158.488 420.664 158.76 419.822 159.303 419.205C159.85 418.584 160.586 418.273 161.512 418.273C162.43 418.273 163.162 418.584 163.709 419.205C164.256 419.822 164.529 420.664 164.529 421.73ZM163.393 421.73C163.393 420.883 163.227 420.254 162.895 419.844C162.562 419.43 162.102 419.223 161.512 419.223C160.914 419.223 160.449 419.43 160.117 419.844C159.789 420.254 159.625 420.883 159.625 421.73C159.625 422.551 159.791 423.174 160.123 423.6C160.455 424.021 160.918 424.232 161.512 424.232C162.098 424.232 162.557 424.023 162.889 423.605C163.225 423.184 163.393 422.559 163.393 421.73ZM171.719 425H170.617V422.053H167.342V425H166.24V418.455H167.342V421.104H170.617V418.455H171.719V425ZM178.703 419.422H176.336V425H175.234V419.422H172.867V418.455H178.703V419.422ZM184.932 425H183.836V424.303C183.738 424.369 183.605 424.463 183.438 424.584C183.273 424.701 183.113 424.795 182.957 424.865C182.773 424.955 182.562 425.029 182.324 425.088C182.086 425.15 181.807 425.182 181.486 425.182C180.896 425.182 180.396 424.986 179.986 424.596C179.576 424.205 179.371 423.707 179.371 423.102C179.371 422.605 179.477 422.205 179.688 421.9C179.902 421.592 180.207 421.35 180.602 421.174C181 420.998 181.479 420.879 182.037 420.816C182.596 420.754 183.195 420.707 183.836 420.676V420.506C183.836 420.256 183.791 420.049 183.701 419.885C183.615 419.721 183.49 419.592 183.326 419.498C183.17 419.408 182.982 419.348 182.764 419.316C182.545 419.285 182.316 419.27 182.078 419.27C181.789 419.27 181.467 419.309 181.111 419.387C180.756 419.461 180.389 419.57 180.01 419.715H179.951V418.596C180.166 418.537 180.477 418.473 180.883 418.402C181.289 418.332 181.689 418.297 182.084 418.297C182.545 418.297 182.945 418.336 183.285 418.414C183.629 418.488 183.926 418.617 184.176 418.801C184.422 418.98 184.609 419.213 184.738 419.498C184.867 419.783 184.932 420.137 184.932 420.559V425ZM183.836 423.389V421.566C183.5 421.586 183.104 421.615 182.646 421.654C182.193 421.693 181.834 421.75 181.568 421.824C181.252 421.914 180.996 422.055 180.801 422.246C180.605 422.434 180.508 422.693 180.508 423.025C180.508 423.4 180.621 423.684 180.848 423.875C181.074 424.062 181.42 424.156 181.885 424.156C182.271 424.156 182.625 424.082 182.945 423.934C183.266 423.781 183.562 423.6 183.836 423.389ZM192.332 425H191.23V419.381H188.787C188.775 419.705 188.764 420.018 188.752 420.318C188.74 420.619 188.729 420.891 188.717 421.133C188.689 421.785 188.645 422.307 188.582 422.697C188.52 423.084 188.438 423.406 188.336 423.664C188.242 423.906 188.137 424.104 188.02 424.256C187.906 424.404 187.783 424.539 187.65 424.66C187.518 424.777 187.369 424.865 187.205 424.924C187.045 424.982 186.869 425.012 186.678 425.012C186.611 425.012 186.514 425.01 186.385 425.006C186.26 425.002 186.178 425 186.139 425V424.039H186.197C186.229 424.039 186.273 424.041 186.332 424.045C186.391 424.049 186.439 424.051 186.479 424.051C186.572 424.051 186.668 424.037 186.766 424.01C186.867 423.982 186.953 423.932 187.023 423.857C187.223 423.662 187.383 423.332 187.504 422.867C187.625 422.402 187.705 421.73 187.744 420.852C187.76 420.531 187.773 420.152 187.785 419.715C187.801 419.273 187.814 418.854 187.826 418.455H192.332V425ZM198.596 422.99C198.596 422.791 198.561 422.617 198.49 422.469C198.424 422.316 198.312 422.193 198.156 422.1C197.992 422.002 197.805 421.943 197.594 421.924C197.387 421.904 197.088 421.895 196.697 421.895H195.607V424.121H196.674C197.064 424.121 197.367 424.105 197.582 424.074C197.797 424.039 197.982 423.975 198.139 423.881C198.299 423.779 198.414 423.66 198.484 423.523C198.559 423.383 198.596 423.205 198.596 422.99ZM199.732 422.973C199.732 423.289 199.668 423.576 199.539 423.834C199.414 424.092 199.242 424.301 199.023 424.461C198.766 424.656 198.49 424.795 198.197 424.877C197.904 424.959 197.527 425 197.066 425H194.506V418.455H195.607V421.004H197.096C197.588 421.004 197.969 421.029 198.238 421.08C198.512 421.131 198.783 421.256 199.053 421.455C199.279 421.623 199.449 421.838 199.562 422.1C199.676 422.361 199.732 422.652 199.732 422.973ZM206.84 425H205.738V422.053H202.463V425H201.361V418.455H202.463V421.104H205.738V418.455H206.84V425ZM214.592 421.73C214.592 422.797 214.318 423.639 213.771 424.256C213.225 424.873 212.492 425.182 211.574 425.182C210.648 425.182 209.912 424.873 209.365 424.256C208.822 423.639 208.551 422.797 208.551 421.73C208.551 420.664 208.822 419.822 209.365 419.205C209.912 418.584 210.648 418.273 211.574 418.273C212.492 418.273 213.225 418.584 213.771 419.205C214.318 419.822 214.592 420.664 214.592 421.73ZM213.455 421.73C213.455 420.883 213.289 420.254 212.957 419.844C212.625 419.43 212.164 419.223 211.574 419.223C210.977 419.223 210.512 419.43 210.18 419.844C209.852 420.254 209.688 420.883 209.688 421.73C209.688 422.551 209.854 423.174 210.186 423.6C210.518 424.021 210.98 424.232 211.574 424.232C212.16 424.232 212.619 424.023 212.951 423.605C213.287 423.184 213.455 422.559 213.455 421.73ZM222.49 425H221.4V419.832L219.771 423.195H218.951L217.334 419.832V425H216.303V418.455H217.633L219.414 422.117L221.137 418.455H222.49V425ZM108.133 445H107.031V439.404H103.756V445H102.654V438.455H108.133V445ZM115.885 441.73C115.885 442.797 115.611 443.639 115.064 444.256C114.518 444.873 113.785 445.182 112.867 445.182C111.941 445.182 111.205 444.873 110.658 444.256C110.115 443.639 109.844 442.797 109.844 441.73C109.844 440.664 110.115 439.822 110.658 439.205C111.205 438.584 111.941 438.273 112.867 438.273C113.785 438.273 114.518 438.584 115.064 439.205C115.611 439.822 115.885 440.664 115.885 441.73ZM114.748 441.73C114.748 440.883 114.582 440.254 114.25 439.844C113.918 439.43 113.457 439.223 112.867 439.223C112.27 439.223 111.805 439.43 111.473 439.844C111.145 440.254 110.98 440.883 110.98 441.73C110.98 442.551 111.146 443.174 111.479 443.6C111.811 444.021 112.273 444.232 112.867 444.232C113.453 444.232 113.912 444.023 114.244 443.605C114.58 443.184 114.748 442.559 114.748 441.73ZM122.875 445H121.773V439.381H119.33C119.318 439.705 119.307 440.018 119.295 440.318C119.283 440.619 119.271 440.891 119.26 441.133C119.232 441.785 119.188 442.307 119.125 442.697C119.062 443.084 118.98 443.406 118.879 443.664C118.785 443.906 118.68 444.104 118.562 444.256C118.449 444.404 118.326 444.539 118.193 444.66C118.061 444.777 117.912 444.865 117.748 444.924C117.588 444.982 117.412 445.012 117.221 445.012C117.154 445.012 117.057 445.01 116.928 445.006C116.803 445.002 116.721 445 116.682 445V444.039H116.74C116.771 444.039 116.816 444.041 116.875 444.045C116.934 444.049 116.982 444.051 117.021 444.051C117.115 444.051 117.211 444.037 117.309 444.01C117.41 443.982 117.496 443.932 117.566 443.857C117.766 443.662 117.926 443.332 118.047 442.867C118.168 442.402 118.248 441.73 118.287 440.852C118.303 440.531 118.316 440.152 118.328 439.715C118.344 439.273 118.357 438.854 118.369 438.455H122.875V445ZM130.627 441.73C130.627 442.797 130.354 443.639 129.807 444.256C129.26 444.873 128.527 445.182 127.609 445.182C126.684 445.182 125.947 444.873 125.4 444.256C124.857 443.639 124.586 442.797 124.586 441.73C124.586 440.664 124.857 439.822 125.4 439.205C125.947 438.584 126.684 438.273 127.609 438.273C128.527 438.273 129.26 438.584 129.807 439.205C130.354 439.822 130.627 440.664 130.627 441.73ZM129.49 441.73C129.49 440.883 129.324 440.254 128.992 439.844C128.66 439.43 128.199 439.223 127.609 439.223C127.012 439.223 126.547 439.43 126.215 439.844C125.887 440.254 125.723 440.883 125.723 441.73C125.723 442.551 125.889 443.174 126.221 443.6C126.553 444.021 127.016 444.232 127.609 444.232C128.195 444.232 128.654 444.023 128.986 443.605C129.322 443.184 129.49 442.559 129.49 441.73ZM140.547 445H139.217L137.119 442.012H136.586V445H135.496V442.012H135.021L132.83 445H131.559L134.084 441.572C133.893 441.471 133.723 441.326 133.574 441.139C133.43 440.951 133.297 440.668 133.176 440.289C133.07 439.957 132.945 439.727 132.801 439.598C132.656 439.469 132.42 439.404 132.092 439.404H131.781V438.455H132.186C132.67 438.455 133.059 438.553 133.352 438.748C133.645 438.943 133.879 439.285 134.055 439.773C134.09 439.875 134.133 439.992 134.184 440.125C134.238 440.254 134.285 440.363 134.324 440.453C134.453 440.75 134.617 440.961 134.816 441.086C135.02 441.207 135.246 441.275 135.496 441.291V438.455H136.586V441.291C136.836 441.275 137.062 441.205 137.266 441.08C137.473 440.955 137.641 440.746 137.77 440.453C137.812 440.355 137.859 440.242 137.91 440.113C137.965 439.984 138.008 439.871 138.039 439.773C138.211 439.293 138.441 438.953 138.73 438.754C139.02 438.555 139.408 438.455 139.896 438.455H140.301V439.404H139.99C139.658 439.404 139.418 439.473 139.27 439.609C139.125 439.746 139.004 439.973 138.906 440.289C138.797 440.637 138.666 440.908 138.514 441.104C138.365 441.295 138.203 441.439 138.027 441.537L140.547 445ZM147.391 441.842H142.568C142.568 442.244 142.629 442.596 142.75 442.896C142.871 443.193 143.037 443.438 143.248 443.629C143.451 443.816 143.691 443.957 143.969 444.051C144.25 444.145 144.559 444.191 144.895 444.191C145.34 444.191 145.787 444.104 146.236 443.928C146.689 443.748 147.012 443.572 147.203 443.4H147.262V444.602C146.891 444.758 146.512 444.889 146.125 444.994C145.738 445.1 145.332 445.152 144.906 445.152C143.82 445.152 142.973 444.859 142.363 444.273C141.754 443.684 141.449 442.848 141.449 441.766C141.449 440.695 141.74 439.846 142.322 439.217C142.908 438.588 143.678 438.273 144.631 438.273C145.514 438.273 146.193 438.531 146.67 439.047C147.15 439.562 147.391 440.295 147.391 441.244V441.842ZM146.318 440.998C146.314 440.42 146.168 439.973 145.879 439.656C145.594 439.34 145.158 439.182 144.572 439.182C143.982 439.182 143.512 439.355 143.16 439.703C142.812 440.051 142.615 440.482 142.568 440.998H146.318ZM154.539 445H153.438V442.053H150.162V445H149.061V438.455H150.162V441.104H153.438V438.455H154.539V445ZM162.227 445H161.137V440.084L157.709 445H156.713V438.455H157.803V443.301L161.195 438.455H162.227V445ZM169.914 445H168.824V440.084L165.396 445H164.4V438.455H165.49V443.301L168.883 438.455H169.914V445ZM180.268 439.111C180.553 439.385 180.773 439.727 180.93 440.137C181.086 440.547 181.164 441.033 181.164 441.596C181.164 442.682 180.859 443.545 180.25 444.186C179.645 444.826 178.834 445.146 177.818 445.146C177.42 445.146 177.033 445.1 176.658 445.006C176.287 444.912 175.971 444.812 175.709 444.707V443.5H175.785C176.02 443.684 176.33 443.848 176.717 443.992C177.104 444.133 177.51 444.203 177.936 444.203C178.549 444.203 179.047 444.016 179.43 443.641C179.812 443.266 180.027 442.715 180.074 441.988H176.77V441.104H180.068C179.99 440.486 179.766 440.023 179.395 439.715C179.023 439.402 178.561 439.246 178.006 439.246C177.65 439.246 177.297 439.307 176.945 439.428C176.594 439.545 176.248 439.734 175.908 439.996H175.832V438.789C176.078 438.691 176.391 438.586 176.77 438.473C177.148 438.359 177.539 438.303 177.941 438.303C178.426 438.303 178.863 438.369 179.254 438.502C179.645 438.635 179.982 438.838 180.268 439.111ZM188.775 445H187.334L184.615 442H184.018V445H182.916V438.455H184.018V441.279C184.381 441.279 184.674 441.215 184.896 441.086C185.119 440.953 185.309 440.742 185.465 440.453C185.52 440.348 185.572 440.236 185.623 440.119C185.678 439.998 185.73 439.883 185.781 439.773C185.984 439.332 186.238 439.002 186.543 438.783C186.848 438.564 187.285 438.455 187.855 438.455H188.359V439.404H187.873C187.564 439.404 187.322 439.471 187.146 439.604C186.975 439.732 186.818 439.961 186.678 440.289C186.521 440.656 186.355 440.932 186.18 441.115C186.008 441.295 185.824 441.432 185.629 441.525L188.775 445ZM195.73 441.648C195.73 442.18 195.654 442.666 195.502 443.107C195.35 443.545 195.135 443.916 194.857 444.221C194.6 444.51 194.295 444.734 193.943 444.895C193.596 445.051 193.227 445.129 192.836 445.129C192.496 445.129 192.188 445.092 191.91 445.018C191.637 444.943 191.357 444.828 191.072 444.672V447.414H189.971V438.455H191.072V439.141C191.365 438.895 191.693 438.689 192.057 438.525C192.424 438.357 192.814 438.273 193.229 438.273C194.018 438.273 194.631 438.572 195.068 439.17C195.51 439.764 195.73 440.59 195.73 441.648ZM194.594 441.678C194.594 440.889 194.459 440.299 194.189 439.908C193.92 439.518 193.506 439.322 192.947 439.322C192.631 439.322 192.312 439.391 191.992 439.527C191.672 439.664 191.365 439.844 191.072 440.066V443.775C191.385 443.916 191.652 444.012 191.875 444.062C192.102 444.113 192.357 444.139 192.643 444.139C193.256 444.139 193.734 443.932 194.078 443.518C194.422 443.104 194.594 442.49 194.594 441.678ZM202.533 445H201.438V444.303C201.34 444.369 201.207 444.463 201.039 444.584C200.875 444.701 200.715 444.795 200.559 444.865C200.375 444.955 200.164 445.029 199.926 445.088C199.688 445.15 199.408 445.182 199.088 445.182C198.498 445.182 197.998 444.986 197.588 444.596C197.178 444.205 196.973 443.707 196.973 443.102C196.973 442.605 197.078 442.205 197.289 441.9C197.504 441.592 197.809 441.35 198.203 441.174C198.602 440.998 199.08 440.879 199.639 440.816C200.197 440.754 200.797 440.707 201.438 440.676V440.506C201.438 440.256 201.393 440.049 201.303 439.885C201.217 439.721 201.092 439.592 200.928 439.498C200.771 439.408 200.584 439.348 200.365 439.316C200.146 439.285 199.918 439.27 199.68 439.27C199.391 439.27 199.068 439.309 198.713 439.387C198.357 439.461 197.99 439.57 197.611 439.715H197.553V438.596C197.768 438.537 198.078 438.473 198.484 438.402C198.891 438.332 199.291 438.297 199.686 438.297C200.146 438.297 200.547 438.336 200.887 438.414C201.23 438.488 201.527 438.617 201.777 438.801C202.023 438.98 202.211 439.213 202.34 439.498C202.469 439.783 202.533 440.137 202.533 440.559V445ZM201.438 443.389V441.566C201.102 441.586 200.705 441.615 200.248 441.654C199.795 441.693 199.436 441.75 199.17 441.824C198.854 441.914 198.598 442.055 198.402 442.246C198.207 442.434 198.109 442.693 198.109 443.025C198.109 443.4 198.223 443.684 198.449 443.875C198.676 444.062 199.021 444.156 199.486 444.156C199.873 444.156 200.227 444.082 200.547 443.934C200.867 443.781 201.164 443.6 201.438 443.389ZM210.133 445H209.031V442.053H205.756V445H204.654V438.455H205.756V441.104H209.031V438.455H210.133V445ZM217.393 445H216.297V444.303C216.199 444.369 216.066 444.463 215.898 444.584C215.734 444.701 215.574 444.795 215.418 444.865C215.234 444.955 215.023 445.029 214.785 445.088C214.547 445.15 214.268 445.182 213.947 445.182C213.357 445.182 212.857 444.986 212.447 444.596C212.037 444.205 211.832 443.707 211.832 443.102C211.832 442.605 211.938 442.205 212.148 441.9C212.363 441.592 212.668 441.35 213.062 441.174C213.461 440.998 213.939 440.879 214.498 440.816C215.057 440.754 215.656 440.707 216.297 440.676V440.506C216.297 440.256 216.252 440.049 216.162 439.885C216.076 439.721 215.951 439.592 215.787 439.498C215.631 439.408 215.443 439.348 215.225 439.316C215.006 439.285 214.777 439.27 214.539 439.27C214.25 439.27 213.928 439.309 213.572 439.387C213.217 439.461 212.85 439.57 212.471 439.715H212.412V438.596C212.627 438.537 212.938 438.473 213.344 438.402C213.75 438.332 214.15 438.297 214.545 438.297C215.006 438.297 215.406 438.336 215.746 438.414C216.09 438.488 216.387 438.617 216.637 438.801C216.883 438.98 217.07 439.213 217.199 439.498C217.328 439.783 217.393 440.137 217.393 440.559V445ZM216.297 443.389V441.566C215.961 441.586 215.564 441.615 215.107 441.654C214.654 441.693 214.295 441.75 214.029 441.824C213.713 441.914 213.457 442.055 213.262 442.246C213.066 442.434 212.969 442.693 212.969 443.025C212.969 443.4 213.082 443.684 213.309 443.875C213.535 444.062 213.881 444.156 214.346 444.156C214.732 444.156 215.086 444.082 215.406 443.934C215.727 443.781 216.023 443.6 216.297 443.389Z" fill="white"/>
<path d="M166.407 298.61C169.413 298.61 179.154 298.994 180.763 298.994C183.993 298.994 187.16 298.206 188.37 297C185.432 301.26 183.4 302.765 176.496 302.765C173.986 302.765 164.929 302.386 162.073 302.386C158.602 302.386 155.669 303.391 154.684 304.379C157.398 300.291 159.691 298.61 166.407 298.61ZM149.341 311.417C150.326 310.432 153.261 309.424 156.73 309.424C159.587 309.424 168.641 309.803 171.152 309.803C178.056 309.803 180.088 308.298 183.025 304.039C181.816 305.248 178.65 306.033 175.419 306.033C173.811 306.033 164.068 305.648 161.063 305.648C154.35 305.645 152.057 307.326 149.341 311.414V311.417ZM144 318.452C144.985 317.467 147.92 316.46 151.389 316.46C154.246 316.46 163.301 316.839 165.811 316.839C172.715 316.839 174.748 315.334 177.684 311.074C176.475 312.284 173.308 313.068 170.078 313.068C168.469 313.068 158.727 312.684 155.722 312.684C149.012 312.681 146.716 314.362 144 318.449V318.452Z" fill="url(#paint0_linear_2330_6995)"/>
<defs>
<linearGradient id="paint0_linear_2330_6995" x1="156.652" y1="300.476" x2="176.253" y2="315.382" gradientUnits="userSpaceOnUse">
<stop stop-color="#8B6228"/>
<stop offset="0.25" stop-color="#D6B160"/>
<stop offset="0.5" stop-color="#F6EECD"/>
<stop offset="0.75" stop-color="#D6B160"/>
<stop offset="1" stop-color="#8B6228"/>
</linearGradient>
</defs>
</svg>
